<?xml version="1.0" encoding="UTF-8" standalone="no"?>
<svg xmlns:dc="http://purl.org/dc/elements/1.1/"
     xmlns:cc="http://creativecommons.org/ns#"
     xmlns:rdf="http://www.w3.org/1999/02/22-rdf-syntax-ns#"
     xmlns:svg="http://www.w3.org/2000/svg"
     xmlns="http://www.w3.org/2000/svg"
     xmlns:xlink="http://www.w3.org/1999/xlink"
     width="64" height="64" viewBox="0 0 128 128" version="1.1">
    <title>New Urgent Update Icon</title>
    <desc>This icon is a part of Clarity icon theme for gtk</desc>
    <metadata>
        <rdf:RDF>
            <cc:Work rdf:about="">
                <dc:title>New Urgent Update Icon</dc:title>
                <dc:description>This icon is a part of Clarity icon theme for gtk</dc:description>
                <dc:creator>
                    <cc:Agent>
                        <dc:title>Jakub Jankiewicz</dc:title>
                    </cc:Agent>
                </dc:creator>
                <dc:rights>
                    <cc:Agent>
                        <dc:title>Jakub Jankiewicz</dc:title>
                    </cc:Agent>
                </dc:rights>
                <dc:date>2010</dc:date>
                <dc:format>image/svg+xml</dc:format>
                <dc:type rdf:resource="http://purl.org/dc/dcmitype/StillImage" />
                <cc:license rdf:resource="http://creativecommons.org/licenses/by-sa/3.0/" />
             </cc:Work>
        </rdf:RDF>
    </metadata>
    <defs>
        <linearGradient x1="0" y1="128" x2="128" y2="0" id="gradient" gradientUnits="userSpaceOnUse">
            <stop id="start" style="stop-color:#dbdbdb;stop-opacity:1" offset="0" />
            <stop id="stop" style="stop-color:#757575;stop-opacity:1" offset="1" />
        </linearGradient>
    </defs>
    <path d="M 64 2.859375 L 50.132812 30.523438 L 20.767578 20.767578 L 30.523438 50.132812 L 2.859375 64 L 30.523438 77.867188 L 20.767578 107.23242 L 50.132812 97.476562 L 64 125.14062 L 77.867188 97.476562 L 107.23242 107.23242 L 97.476562 77.867188 L 125.14062 64 L 97.476562 50.132812 L 107.23242 20.767578 L 77.867188 30.523438 L 64 2.859375 z M 57.689453 40.990234 L 70.310547 40.990234 L 68.433594 75.638672 L 59.566406 75.638672 L 57.689453 40.990234 z M 58.628906 77.798828 L 69.371094 77.798828 L 69.371094 87.009766 L 58.628906 87.009766 L 58.628906 77.798828 z " style="fill:url(#gradient);fill-opacity:1;stroke:none" />
</svg>