<?xml version="1.0" encoding="UTF-8" standalone="no"?>
<svg xmlns:dc="http://purl.org/dc/elements/1.1/"
     xmlns:cc="http://creativecommons.org/ns#"
     xmlns:rdf="http://www.w3.org/1999/02/22-rdf-syntax-ns#"
     xmlns:svg="http://www.w3.org/2000/svg"
     xmlns="http://www.w3.org/2000/svg"
     xmlns:xlink="http://www.w3.org/1999/xlink"
     width="64" height="64" viewBox="0 0 128 128" version="1.1">
    <title>System Device Panel</title>
    <desc>This icon is a part of Clarity icon theme for gtk</desc>
    <metadata>
        <rdf:RDF>
            <cc:Work rdf:about="">
                <dc:title>System Device Panel</dc:title>
                <dc:description>This icon is a part of Clarity icon theme for gtk</dc:description>
                <dc:creator>
                    <cc:Agent>
                        <dc:title>Jakub Jankiewicz</dc:title>
                    </cc:Agent>
                </dc:creator>
                <dc:rights>
                    <cc:Agent>
                        <dc:title>Jakub Jankiewicz</dc:title>
                    </cc:Agent>
                </dc:rights>
                <dc:date>2010</dc:date>
                <dc:format>image/svg+xml</dc:format>
                <dc:type rdf:resource="http://purl.org/dc/dcmitype/StillImage" />
                <cc:license rdf:resource="http://creativecommons.org/licenses/by-sa/3.0/" />
             </cc:Work>
        </rdf:RDF>
    </metadata>
    <defs>
        <linearGradient x1="0" y1="128" x2="128" y2="0" id="gradient" gradientUnits="userSpaceOnUse">
            <stop id="start" style="stop-color:#dbdbdb;stop-opacity:1" offset="0" />
            <stop id="stop" style="stop-color:#757575;stop-opacity:1" offset="1" />
        </linearGradient>
    </defs>
    <path d="m 57.440681,11.525425 0,45.915256 13.118643,0 0,-45.915256 -13.118643,0 z m -25.909322,10.699895 -9.306039,9.265042 9.715996,9.715997 c -3.371493,4.742391 -5.719729,10.258779 -6.723305,16.234322 l -13.692585,0 0,13.118643 13.692585,0 c 1.003576,5.968984 3.351812,11.450937 6.723305,16.193327 l -9.675,9.715995 9.265043,9.265044 9.675,-9.715997 c 4.742391,3.371492 10.258779,5.719727 16.234322,6.723307 l 0,13.73358 13.118643,0 0,-13.73358 c 5.968984,-1.00358 11.450936,-3.351815 16.193327,-6.723307 l 9.715995,9.715997 9.265044,-9.265044 -9.675001,-9.715995 c 3.378052,-4.74239 5.678731,-10.217784 6.682311,-16.193327 l 13.73358,0 0,-13.118643 -13.73358,0 C 101.73742,51.465138 99.430182,45.94875 96.058689,41.206359 l 9.675001,-9.715997 -9.265044,-9.265042 -9.715995,9.715996 c -2.938576,-2.092424 -6.177242,-3.768331 -9.634005,-5.001484 l 0,14.430509 c 7.805595,4.545612 13.118645,12.9481 13.118645,22.629661 0,7.215255 -2.915617,13.705704 -7.625212,18.448094 l -0.122988,0.163983 c -4.742389,4.709593 -11.273832,7.625212 -18.489088,7.625212 -7.241493,0 -13.822132,-2.958255 -18.571081,-7.707204 -4.742391,-4.742389 -7.666208,-11.288593 -7.666208,-18.530085 0,-9.688119 5.31305,-18.084049 13.118645,-22.629661 l 0,-14.430509 c -3.456763,1.233153 -6.736425,2.90906 -9.675,5.001484 l -9.675,-9.715996 z" style="fill:url(#gradient);fill-opacity:1;stroke:none" />
  <path style="fill:#276aef;fill-opacity:1;stroke:none" d="M 26.8125,73.78125 C 11.989291,73.78125 0,85.931608 0,100.90625 0,115.8809 11.989291,128 26.8125,128 c 14.82321,0 26.875,-12.1191 26.875,-27.09375 0,-14.974642 -12.05179,-27.125 -26.875,-27.125 z M 26.34375,81.375 c 1.14965,4.3e-5 2.18426,0.444258 3,1.25 0.0064,0.0063 0.0249,-0.0063 0.03125,0 0.8302,0.798777 1.28124,1.860854 1.28125,3.03125 -10e-6,1.195537 -0.4482,2.260713 -1.28125,3.09375 -0.83491,0.814058 -1.92276,1.281284 -3.125,1.28125 -1.19751,3.4e-5 -2.235786,-0.454493 -3.03125,-1.25 C 22.420358,87.961892 21.999993,86.904804 22,85.71875 c -7e-6,-1.223144 0.424314,-2.289203 1.25,-3.09375 0.815634,-0.794687 1.880209,-1.249957 3.09375,-1.25 z m 2.5625,10.90625 c 0.49295,1.6e-5 0.97708,0.133329 1.3125,0.46875 0.33542,0.335421 0.46874,0.819554 0.46875,1.3125 -10e-6,0.43517 -0.07761,0.941779 -0.1875,1.65625 -0.10676,0.676361 -0.15626,1.182733 -0.15625,1.5 0,1.21815 -0.02579,3.06175 -0.0625,5.5 -0.0182,2.41954 -0.03125,4.23192 -0.03125,5.4375 -10e-5,2.85424 0.03993,4.80331 0.09375,5.84375 0.0657,1.1008 0.41279,1.63707 1,1.9375 0.66214,0.15525 1.33163,0.33277 2,0.5 0.0099,0.002 0.0214,-0.002 0.03125,0 0.44205,0.10415 0.84845,0.29315 1.125,0.625 0.28245,0.33894 0.40624,0.79414 0.40625,1.25 0,0.40107 -0.18119,0.786 -0.46875,1.0625 -0.28756,0.2765 -0.68271,0.48194 -1.125,0.625 -0.88457,0.28612 -2.0752,0.40625 -3.65625,0.40625 -3.38177,0 -6.23823,-0.0771 -8.59375,-0.1875 -0.645493,-0.0307 -1.191862,-0.17769 -1.625,-0.5 -0.433138,-0.32231 -0.687502,-0.85302 -0.6875,-1.40625 -2e-6,-0.47631 0.162546,-0.93702 0.46875,-1.28125 0.306204,-0.34423 0.733642,-0.546 1.21875,-0.65625 0.670075,-0.15605 1.169731,-0.28905 1.53125,-0.375 0.18076,-0.043 0.341384,-0.0683 0.4375,-0.0937 0.05767,-0.0153 0.04813,0.005 0.0625,0 0.0096,-0.003 0.07232,-0.0518 0.03125,-0.0313 0.552112,-0.33458 0.843744,-1.00333 0.84375,-2.28125 -10e-6,-1.04966 0.01291,-2.61597 0.03125,-4.6875 0.01832,-2.07119 0.03124,-3.61623 0.03125,-4.65625 -10e-6,-2.54197 -0.04094,-4.252512 -0.09375,-5.0625 -0.03027,-0.507023 -0.181106,-0.833462 -0.4375,-1.09375 -0.256394,-0.260288 -0.633542,-0.480182 -1.25,-0.59375 -0.741624,-0.138424 -1.355347,-0.334384 -1.8125,-0.6875 -0.457153,-0.353116 -0.750002,-0.899086 -0.75,-1.46875 -2e-6,-0.462232 0.172133,-0.927246 0.5,-1.25 0.327867,-0.322754 0.778614,-0.496924 1.28125,-0.5625 a 0.58546407,0.58546407 0 0 1 0.21875,0.03125 c 0.006,4.39e-4 0.02303,-5.55e-4 0.03125,0 a 0.58546407,0.58546407 0 0 1 0.03125,0.03125 c 0.01053,6.47e-4 0.01882,-6.97e-4 0.03125,0 0.04972,0.0028 0.05194,-0.0023 0.125,0 0.332835,0.01062 0.902489,1e-5 1.6875,0 0.596764,2.1e-5 1.574605,-0.19597 2.84375,-0.625 1.34622,-0.448717 2.33508,-0.687468 3.09375,-0.6875 z" id="shape" />
</svg>