<?xml version="1.0" encoding="UTF-8" standalone="no"?>
<svg xmlns:dc="http://purl.org/dc/elements/1.1/"
     xmlns:cc="http://creativecommons.org/ns#"
     xmlns:rdf="http://www.w3.org/1999/02/22-rdf-syntax-ns#"
     xmlns:svg="http://www.w3.org/2000/svg"
     xmlns="http://www.w3.org/2000/svg"
     xmlns:xlink="http://www.w3.org/1999/xlink"
     width="64" height="64" viewBox="0 0 128 128" version="1.1">
    <title>Cut Lock Icon</title>
    <desc>This icon is a part of Clarity icon theme for gtk</desc>
    <metadata>
        <rdf:RDF>
            <cc:Work rdf:about="">
                <dc:title>Cut Lock Icon</dc:title>
                <dc:description>This icon is a part of Clarity icon theme for gtk</dc:description>
                <dc:creator>
                    <cc:Agent>
                        <dc:title>Jakub Jankiewicz</dc:title>
                    </cc:Agent>
                </dc:creator>
                <dc:rights>
                    <cc:Agent>
                        <dc:title>Jakub Jankiewicz</dc:title>
                    </cc:Agent>
                </dc:rights>
                <dc:date>2010</dc:date>
                <dc:format>image/svg+xml</dc:format>
                <dc:type rdf:resource="http://purl.org/dc/dcmitype/StillImage" />
                <cc:license rdf:resource="http://creativecommons.org/licenses/by-sa/3.0/" />
             </cc:Work>
        </rdf:RDF>
    </metadata>
    <defs>
        <linearGradient x1="0" y1="128" x2="128" y2="0" id="gradient" gradientUnits="userSpaceOnUse">
            <stop id="start" style="stop-color:#dbdbdb;stop-opacity:1" offset="0" />
            <stop id="stop" style="stop-color:#757575;stop-opacity:1" offset="1" />
        </linearGradient>
    </defs>
    <path d="m 64.024792,6.186395 c -15.716433,0 -28.5592,12.842775 -28.5592,28.559202 V 51.702622 C 29.208634,53.072988 24.557564,58.608036 24.557564,65.288065 V 85.366218 H 103.44244 V 65.288065 c 0,-6.663275 -4.625214,-12.197635 -10.858444,-13.585443 V 34.745597 c 0,-15.716427 -12.842777,-28.559202 -28.559204,-28.559202 z m 0,9.519735 c 10.571565,0 19.039467,8.467877 19.039467,19.039467 V 51.405113 H 44.985326 V 34.745597 c 0,-10.57159 8.467876,-19.039467 19.039466,-19.039467 z" style="fill:url(#gradient);fill-opacity:1;stroke:none" />
  <g id="shape"><rect ry="4.4814997" rx="4.4814997" y="78.696457" x="9.0825615" height="27.434317" width="109.83488" style="fill:#f9f9f9;fill-opacity:1;stroke:#000000;stroke-width:2.75129914;stroke-linecap:round;stroke-miterlimit:4;stroke-dasharray:none;stroke-opacity:1" /><path style="fill:#000000;fill-opacity:1;stroke:none;stroke-width:3.97409868;stroke-linecap:round;stroke-miterlimit:4;stroke-dasharray:none;stroke-opacity:1" d="m 103.98964,83.550208 v 17.726522 h 3.56783 V 83.550208 Z m -83.08882,3.37679 c -3.030426,-3.79e-4 -5.487332,2.456045 -5.487549,5.486471 2.17e-4,3.030426 2.457123,5.48685 5.487549,5.486471 3.030008,-2.11e-4 5.486264,-2.456463 5.486481,-5.486471 -2.17e-4,-3.030008 -2.456473,-5.48626 -5.486481,-5.486471 z m 14.434653,0 c -3.030427,-3.82e-4 -5.487337,2.456044 -5.487554,5.486471 2.17e-4,3.030427 2.457127,5.486853 5.487554,5.486471 3.030006,-2.14e-4 5.486258,-2.456465 5.486475,-5.486471 -2.17e-4,-3.030006 -2.456469,-5.486257 -5.486475,-5.486471 z m 14.434648,0 c -3.030428,-3.82e-4 -5.487338,2.456043 -5.487555,5.486471 2.17e-4,3.030428 2.457127,5.486853 5.487555,5.486471 3.030006,-2.14e-4 5.486258,-2.456465 5.486475,-5.486471 -2.17e-4,-3.030006 -2.456469,-5.486257 -5.486475,-5.486471 z m 14.434646,0 c -3.030427,-3.82e-4 -5.487337,2.456044 -5.487554,5.486471 2.17e-4,3.030427 2.457127,5.486853 5.487554,5.486471 3.030007,-2.14e-4 5.486259,-2.456464 5.486476,-5.486471 -2.17e-4,-3.030007 -2.456469,-5.486257 -5.486476,-5.486471 z m 14.434647,0 c -3.030425,-3.78e-4 -5.487331,2.456046 -5.487548,5.486471 2.17e-4,3.030425 2.457123,5.486849 5.487548,5.486471 3.030009,-2.11e-4 5.486265,-2.456462 5.486482,-5.486471 -2.17e-4,-3.030009 -2.456473,-5.48626 -5.486482,-5.486471 z m 14.434651,0 c -3.030427,-3.8e-4 -5.487335,2.456044 -5.487552,5.486471 2.17e-4,3.030427 2.457125,5.486851 5.487552,5.486471 3.030007,-2.14e-4 5.486259,-2.456464 5.486476,-5.486471 -2.17e-4,-3.030007 -2.456469,-5.486257 -5.486476,-5.486471 z" /></g>
</svg>