<?xml version="1.0" encoding="UTF-8" standalone="no"?>
<svg xmlns:dc="http://purl.org/dc/elements/1.1/"
     xmlns:cc="http://creativecommons.org/ns#"
     xmlns:rdf="http://www.w3.org/1999/02/22-rdf-syntax-ns#"
     xmlns:svg="http://www.w3.org/2000/svg"
     xmlns="http://www.w3.org/2000/svg"
     xmlns:xlink="http://www.w3.org/1999/xlink"
     width="64" height="64" viewBox="0 0 128 128" version="1.1">
    <title>Star Icon</title>
    <desc>This icon is a part of Clarity icon theme for gtk</desc>
    <metadata>
        <rdf:RDF>
            <cc:Work rdf:about="">
                <dc:title>Star Icon</dc:title>
                <dc:description>This icon is a part of Clarity icon theme for gtk</dc:description>
                <dc:creator>
                    <cc:Agent>
                        <dc:title>Jakub Jankiewicz</dc:title>
                    </cc:Agent>
                </dc:creator>
                <dc:rights>
                    <cc:Agent>
                        <dc:title>Jakub Jankiewicz</dc:title>
                    </cc:Agent>
                </dc:rights>
                <dc:date>2010</dc:date>
                <dc:format>image/svg+xml</dc:format>
                <dc:type rdf:resource="http://purl.org/dc/dcmitype/StillImage" />
                <cc:license rdf:resource="http://creativecommons.org/licenses/by-sa/3.0/" />
             </cc:Work>
        </rdf:RDF>
    </metadata>
    <defs>
        <linearGradient x1="0" y1="128" x2="128" y2="0" id="gradient" gradientUnits="userSpaceOnUse">
            <stop id="start" style="stop-color:#dbdbdb;stop-opacity:1" offset="0" />
            <stop id="stop" style="stop-color:#757575;stop-opacity:1" offset="1" />
        </linearGradient>
    </defs>
    <path d="M 104.0574,55.231787 87.077045,75.662981 88.373642,102.19758 63.695203,92.361889 38.859965,101.79467 40.588212,75.284682 23.942598,54.57986 49.689147,48.031481 64.236825,25.802419 78.420826,48.265282 z" style="fill:url(#gradient);fill-opacity:1;stroke:none" />
  <path style="fill:#bf0000;fill-opacity:1;stroke:none" d="m 27.320288,73.352442 c -6.993977,0 -13.981897,2.674683 -19.3172465,8.010042 -10.670722,10.670719 -10.670722,27.963756 0,38.634486 10.6707095,10.67071 27.9823865,10.67071 38.6530865,0 10.67073,-10.67073 10.67073,-27.963767 0,-38.634486 -5.33535,-5.335359 -12.34188,-8.010042 -19.33586,-8.010042 z m 16.48577,22.316348 v 10.02187 H 10.834501 V 95.66879 Z" id="shape" />
</svg>