<?xml version="1.0" encoding="UTF-8" standalone="no"?>
<svg xmlns:dc="http://purl.org/dc/elements/1.1/"
     xmlns:cc="http://creativecommons.org/ns#"
     xmlns:rdf="http://www.w3.org/1999/02/22-rdf-syntax-ns#"
     xmlns:svg="http://www.w3.org/2000/svg"
     xmlns="http://www.w3.org/2000/svg"
     xmlns:xlink="http://www.w3.org/1999/xlink"
     width="64" height="64" viewBox="0 0 128 128" version="1.1">
    <title>Star Icon</title>
    <desc>This icon is a part of Clarity icon theme for gtk</desc>
    <metadata>
        <rdf:RDF>
            <cc:Work rdf:about="">
                <dc:title>Star Icon</dc:title>
                <dc:description>This icon is a part of Clarity icon theme for gtk</dc:description>
                <dc:creator>
                    <cc:Agent>
                        <dc:title>Jakub Jankiewicz</dc:title>
                    </cc:Agent>
                </dc:creator>
                <dc:rights>
                    <cc:Agent>
                        <dc:title>Jakub Jankiewicz</dc:title>
                    </cc:Agent>
                </dc:rights>
                <dc:date>2010</dc:date>
                <dc:format>image/svg+xml</dc:format>
                <dc:type rdf:resource="http://purl.org/dc/dcmitype/StillImage" />
                <cc:license rdf:resource="http://creativecommons.org/licenses/by-sa/3.0/" />
             </cc:Work>
        </rdf:RDF>
    </metadata>
    <defs>
        <linearGradient x1="0" y1="128" x2="128" y2="0" id="gradient" gradientUnits="userSpaceOnUse">
            <stop id="start" style="stop-color:#dbdbdb;stop-opacity:1" offset="0" />
            <stop id="stop" style="stop-color:#757575;stop-opacity:1" offset="1" />
        </linearGradient>
    </defs>
    <path d="M 104.0574,55.231787 87.077045,75.662981 88.373642,102.19758 63.695203,92.361889 38.859965,101.79467 40.588212,75.284682 23.942598,54.57986 49.689147,48.031481 64.236825,25.802419 78.420826,48.265282 z" style="fill:url(#gradient);fill-opacity:1;stroke:none" />
  <path style="fill:#bf0000;fill-opacity:1;stroke:none" d="M 27.329493,73.341002 C 12.237603,73.341002 0,85.5786 0,100.6705 0,115.7624 12.237603,128 27.329493,128 c 15.0919,0 27.32951,-12.2376 27.32951,-27.3295 0,-15.0919 -12.23761,-27.329498 -27.32951,-27.329498 z m -13.33873,9.147091 13.33873,13.338732 13.33874,-13.338732 4.84367,4.843673 -13.33874,13.338734 13.33874,13.33874 -4.84367,4.84367 -13.33874,-13.33874 -13.33873,13.33874 -4.84367,-4.84367 L 22.485827,100.6705 9.147093,87.331766 Z" id="shape" />
</svg>