<?xml version="1.0" encoding="UTF-8" standalone="no"?>
<svg xmlns:dc="http://purl.org/dc/elements/1.1/"
     xmlns:cc="http://creativecommons.org/ns#"
     xmlns:rdf="http://www.w3.org/1999/02/22-rdf-syntax-ns#"
     xmlns:svg="http://www.w3.org/2000/svg"
     xmlns="http://www.w3.org/2000/svg"
     xmlns:xlink="http://www.w3.org/1999/xlink"
     width="64" height="64" viewBox="0 0 128 128" version="1.1">
    <title>Clarity Icon</title>
    <desc>This icon is a part of Clarity icon theme for gtk</desc>
    <metadata>
        <rdf:RDF>
            <cc:Work rdf:about="">
                <dc:title>Clarity Icon</dc:title>
                <dc:description>This icon is a part of Clarity icon theme for gtk</dc:description>
                <dc:creator>
                    <cc:Agent>
                        <dc:title>Jakub Jankiewicz</dc:title>
                    </cc:Agent>
                </dc:creator>
                <dc:rights>
                    <cc:Agent>
                        <dc:title>Jakub Jankiewicz</dc:title>
                    </cc:Agent>
                </dc:rights>
                <dc:date>2010</dc:date>
                <dc:format>image/svg+xml</dc:format>
                <dc:type rdf:resource="http://purl.org/dc/dcmitype/StillImage" />
                <cc:license rdf:resource="http://creativecommons.org/licenses/by-sa/3.0/" />
             </cc:Work>
        </rdf:RDF>
    </metadata>
    <defs>
        <linearGradient x1="0" y1="128" x2="128" y2="0" id="gradient" gradientUnits="userSpaceOnUse">
            <stop id="start" style="stop-color:#dbdbdb;stop-opacity:1" offset="0" />
            <stop id="stop" style="stop-color:#757575;stop-opacity:1" offset="1" />
        </linearGradient>
    </defs>
    <path d="m 22.13243,34.688515 c -4.638721,0 -8.370725,3.732004 -8.370725,8.370724 l 0,41.881522 c 0,4.63872 3.732004,8.370724 8.370725,8.370724 l 83.73514,0 c 4.63872,0 8.37072,-3.732004 8.37072,-8.370724 l 0,-41.881522 c 0,-4.63872 -3.732,-8.370724 -8.37072,-8.370724 l -83.73514,0 z m 67.579643,7.561554 c 6.491803,0 11.774817,5.25511 11.774817,11.746916 0,6.491806 -5.283014,11.774818 -11.774817,11.774818 -6.49182,0 -11.719013,-5.283012 -11.719013,-11.774818 0,-6.491806 5.227193,-11.746916 11.719013,-11.746916 z m -65.654377,4.548094 30.692654,0 c 2.222721,0 4.017948,1.767324 4.017948,3.990045 0,2.22272 -1.795227,4.017947 -4.017948,4.017947 l -30.692654,0 c -2.22272,0 -4.017947,-1.795227 -4.017947,-4.017947 0,-2.222721 1.795227,-3.990045 4.017947,-3.990045 z m 0,13.700084 30.692654,0 c 2.222721,0 4.017948,1.795227 4.017948,4.017948 0,2.22272 -1.795227,4.017947 -4.017948,4.017947 l -30.692654,0 c -2.22272,0 -4.017947,-1.795227 -4.017947,-4.017947 0,-2.222721 1.795227,-4.017948 4.017947,-4.017948 z m 55.888533,3.683119 c 2.539062,2.432052 5.972282,3.962142 9.765844,3.962142 3.806328,0 7.252248,-1.515568 9.793747,-3.962142 4.29289,4.431556 7.5474,11.630804 8.87296,20.229249 l -37.249714,0 c 1.32447,-8.599854 4.520713,-15.799209 8.817163,-20.229249 z" style="fill:url(#gradient);fill-opacity:1;stroke:none" />
  <path style="fill:#15a100;fill-opacity:1;stroke:none" d="m 27.320289,73.352446 c -6.993976,0 -13.981896,2.674683 -19.3172445,8.010042 -10.670726,10.670719 -10.670726,27.963762 0,38.634482 10.6707065,10.67071 27.9823845,10.67071 38.6530855,0 10.670729,-10.67072 10.670729,-27.963763 0,-38.634482 C 41.320779,76.027129 34.31425,73.352446 27.32027,73.352446 Z M 22.309354,84.193945 H 32.331209 V 95.668794 H 43.80606 V 105.69066 H 32.331209 v 11.47485 H 22.309354 V 105.69066 H 10.834497 V 95.668794 h 11.474857 z" id="shape" />
</svg>