<?xml version="1.0" encoding="UTF-8" standalone="no"?>
<svg xmlns:dc="http://purl.org/dc/elements/1.1/"
     xmlns:cc="http://creativecommons.org/ns#"
     xmlns:rdf="http://www.w3.org/1999/02/22-rdf-syntax-ns#"
     xmlns:svg="http://www.w3.org/2000/svg"
     xmlns="http://www.w3.org/2000/svg"
     xmlns:xlink="http://www.w3.org/1999/xlink"
     width="64" height="64" viewBox="0 0 128 128" version="1.1">
    <title>Clarity Icon</title>
    <desc>This icon is a part of Clarity icon theme for gtk</desc>
    <metadata>
        <rdf:RDF>
            <cc:Work rdf:about="">
                <dc:title>Clarity Icon</dc:title>
                <dc:description>This icon is a part of Clarity icon theme for gtk</dc:description>
                <dc:creator>
                    <cc:Agent>
                        <dc:title>Jakub Jankiewicz</dc:title>
                    </cc:Agent>
                </dc:creator>
                <dc:rights>
                    <cc:Agent>
                        <dc:title>Jakub Jankiewicz</dc:title>
                    </cc:Agent>
                </dc:rights>
                <dc:date>2010</dc:date>
                <dc:format>image/svg+xml</dc:format>
                <dc:type rdf:resource="http://purl.org/dc/dcmitype/StillImage" />
                <cc:license rdf:resource="http://creativecommons.org/licenses/by-sa/3.0/" />
             </cc:Work>
        </rdf:RDF>
    </metadata>
    <defs>
        <linearGradient x1="0" y1="128" x2="128" y2="0" id="gradient" gradientUnits="userSpaceOnUse">
            <stop id="start" style="stop-color:#dbdbdb;stop-opacity:1" offset="0" />
            <stop id="stop" style="stop-color:#757575;stop-opacity:1" offset="1" />
        </linearGradient>
    </defs>
    <path d="m 29.093731,11.235622 c -3.18381,0 -5.71875,2.566196 -5.71875,5.75 l 0,94.028788 c 0,3.1838 2.53494,5.75 5.71875,5.75 l 69.8125,0 c 3.183799,0 5.718749,-2.5662 5.718749,-5.75 l 0,-70.653788 -21.031249,0 c -4.30611,0 -8.0625,-3.141109 -8.0625,-7.3125 l 0,-21.8125 z m 50.4375,0 0,21.8125 c 0,1.714122 1.63197,3.3125 4.0625,3.3125 l 21.031249,0 z" style="fill:url(#gradient);fill-opacity:1;stroke:none" />
  <path style="fill:#15a100;fill-opacity:1;stroke:none" d="m 27.320289,73.352446 c -6.993976,0 -13.981896,2.674683 -19.3172445,8.010042 -10.670726,10.670719 -10.670726,27.963762 0,38.634482 10.6707065,10.67071 27.9823845,10.67071 38.6530855,0 10.670729,-10.67072 10.670729,-27.963763 0,-38.634482 C 41.320779,76.027129 34.31425,73.352446 27.32027,73.352446 Z M 22.309354,84.193945 H 32.331209 V 95.668794 H 43.80606 V 105.69066 H 32.331209 v 11.47485 H 22.309354 V 105.69066 H 10.834497 V 95.668794 h 11.474857 z" id="shape" />
</svg>