<?xml version="1.0" encoding="UTF-8" standalone="no"?>
<svg
   width="58.799999"
   height="58.480999"
   color-interpolation="linearRGB"
   version="1.1"
   xml:space="preserve"
   id="svg63"
   sodipodi:docname="brave2.svg"
   inkscape:export-filename="brave2.svg"
   inkscape:export-xdpi="105.06053"
   inkscape:export-ydpi="105.06053"
   xmlns:inkscape="http://www.inkscape.org/namespaces/inkscape"
   xmlns:sodipodi="http://sodipodi.sourceforge.net/DTD/sodipodi-0.dtd"
   xmlns="http://www.w3.org/2000/svg"
   xmlns:svg="http://www.w3.org/2000/svg"><defs
     id="defs67" /><sodipodi:namedview
     id="namedview65"
     pagecolor="#ffffff"
     bordercolor="#000000"
     borderopacity="0.25"
     inkscape:showpageshadow="2"
     inkscape:pageopacity="0.0"
     inkscape:pagecheckerboard="0"
     inkscape:deskcolor="#d1d1d1"
     showgrid="false" /><g
     transform="translate(-3.1082501,-6.3711701)"
     id="g61"><path
       d="m 33.294,62.262 c -1.8692,-2.8764 -2.5328,-3.3389 -3.3833,-2.34 -0.30842,0.37921 -0.73833,0.68443 -0.95329,0.68443 -0.20561,0 -1.3832,-1.3966 -2.6169,-3.0984 -2.4487,-3.3759 -3.6449,-3.7736 -4.1029,-1.3874 -0.25234,1.3411 -0.38319,1.1931 -2.2991,-2.4972 -1.1122,-2.155 -2.3552,-4.0418 -2.7664,-4.199 -0.40188,-0.14798 -1.2804,-0.02775 -1.9627,0.27747 -0.67291,0.30522 -1.3365,0.44395 -1.4673,0.31447 -0.14019,-0.12949 0.2243,-2.0718 0.79441,-4.3193 1.243,-4.8557 0.97198,-5.5494 -1.9253,-5.0962 -1.4299,0.23122 -1.8692,0.13874 -1.8692,-0.36996 0,-0.36996 1.3832,-2.9874 3.0748,-5.8084 2.8973,-4.828 3.0374,-5.1979 2.3645,-6.2061 -1.7384,-2.6267 0.85049,-5.8546 4.7104,-5.8546 1.0187,0 1.8505,-0.12949 1.8505,-0.28672 0,-0.15723 -0.54207,-0.91565 -1.2056,-1.6833 -0.65422,-0.76767 -1.1963,-1.5723 -1.1963,-1.7851 0,-0.20348 1.4206,-0.11099 3.1496,0.21273 1.0561,0.19423 2.1028,0.38846 3.1589,0.58269 -0.10281,-0.39771 -0.19627,-0.78616 -0.29907,-1.1746 -0.16823,-0.63818 -0.42057,-1.7758 -0.57011,-2.5157 -0.09346,-0.4532 -0.18692,-0.89715 -0.28038,-1.3504 1.0094,0.39771 2.0187,0.80466 3.0281,1.2116 1.0094,0.39771 2.0187,0.80466 3.0281,1.2024 0.28038,-0.36071 0.56076,-0.73067 0.84114,-1.1006 0.4673,-0.60118 1.2243,-1.896 1.6729,-2.8672 0.4486,-0.9712 0.96264,-1.7758 1.1496,-1.7758 0.17757,0 0.6916,0.80466 1.1402,1.7758 0.4486,0.97114 1.2056,2.266 1.6729,2.8672 0.28038,0.36996 0.56076,0.73992 0.84114,1.1006 1.0094,-0.39771 2.0187,-0.80466 3.0281,-1.2024 1.0094,-0.40696 2.0187,-0.81391 3.0281,-1.2116 -0.09346,0.4532 -0.18692,0.89715 -0.28038,1.3504 -0.14954,0.73992 -0.41122,1.8868 -0.57945,2.5435 -0.32711,1.2949 -0.47665,1.2949 4.9347,0.08324 1.486,-0.33296 1.3552,0.37921 -0.40188,2.3585 -0.49534,0.55494 -1,1.1099 -1.4954,1.6648 h 2.1402 c 4.1496,0 6.8132,3.1262 5.0001,5.8546 -0.67291,1.0081 -0.53272,1.3781 2.3645,6.2061 1.6916,2.8209 3.0748,5.4384 3.0748,5.8084 0,0.5087 -0.43926,0.60118 -1.8692,0.36996 -2.8973,-0.4532 -3.1683,0.24047 -1.9253,5.0962 0.57011,2.2475 0.9346,4.1898 0.79441,4.3193 -0.13084,0.12949 -0.79441,-0.0092 -1.4673,-0.31447 -0.68226,-0.30522 -1.5608,-0.42545 -1.9627,-0.27747 -0.41122,0.15723 -1.6542,2.044 -2.7664,4.199 -1.9159,3.6904 -2.0468,3.8291 -2.2991,2.4972 -0.45795,-2.3862 -1.6542,-1.9885 -4.1029,1.3874 -1.2337,1.7018 -2.4113,3.0984 -2.6169,3.0984 -0.21496,0 -0.64487,-0.30522 -0.95329,-0.68443 -0.85049,-0.99889 -1.5141,-0.53644 -3.3833,2.34 -0.92525,1.4243 -1.7851,2.5897 -1.9159,2.5897 -0.14019,0 -1,-1.1654 -1.9253,-2.5897 z"
       fill="#010101"
       fill-opacity="0.4352"
       stroke-width="0.92974"
       id="path2" /><path
       d="m 29.635,58.24 c -1.81,-2.7613 -2.4525,-3.2053 -3.2761,-2.2463 -0.29865,0.36403 -0.71494,0.65703 -0.92309,0.65703 -0.1991,0 -1.3394,-1.3407 -2.534,-2.9744 -2.3711,-3.2408 -3.5295,-3.6226 -3.9729,-1.3318 -0.24435,1.2874 -0.37105,1.1454 -2.2263,-2.3973 -1.0769,-2.0688 -2.2806,-3.8801 -2.6788,-4.031 -0.38914,-0.14206 -1.2398,-0.02664 -1.9005,0.26637 -0.65159,0.293 -1.2941,0.42618 -1.4208,0.30188 -0.13575,-0.1243 0.2172,-1.9889 0.76924,-4.1464 1.2036,-4.6614 0.94119,-5.3273 -1.8643,-4.8922 -1.3846,0.22197 -1.81,0.13318 -1.81,-0.35515 0,-0.35515 1.3394,-2.8679 2.9774,-5.5759 2.8055,-4.6348 2.9412,-4.9899 2.2896,-5.9577 -1.6833,-2.5216 0.82354,-5.6203 4.5612,-5.6203 0.98644,0 1.7919,-0.1243 1.7919,-0.27524 0,-0.15094 -0.52489,-0.879 -1.1674,-1.6159 -0.63349,-0.73694 -1.1584,-1.5094 -1.1584,-1.7136 0,-0.19533 1.3756,-0.10655 3.0498,0.20421 1.0226,0.18646 2.0362,0.37291 3.0589,0.55937 -0.09955,-0.38179 -0.19005,-0.7547 -0.2896,-1.1276 -0.1629,-0.61264 -0.40725,-1.7047 -0.55204,-2.415 -0.0905,-0.43506 -0.181,-0.86125 -0.2715,-1.2963 0.97739,0.38179 1.9548,0.77246 2.9322,1.1631 0.97739,0.38179 1.9548,0.77246 2.9322,1.1542 0.2715,-0.34628 0.543,-0.70143 0.81449,-1.0566 0.45249,-0.57712 1.1855,-1.8202 1.6199,-2.7524 0.4344,-0.93228 0.93214,-1.7047 1.1131,-1.7047 0.17195,0 0.66969,0.77246 1.1041,1.7047 0.4344,0.93228 1.1674,2.1753 1.6199,2.7524 0.2715,0.35515 0.54299,0.71031 0.81449,1.0566 0.97739,-0.38179 1.9548,-0.77246 2.9322,-1.1542 0.97739,-0.39067 1.9548,-0.78134 2.9322,-1.1631 -0.0905,0.43506 -0.181,0.86125 -0.2715,1.2963 -0.1448,0.71031 -0.3982,1.8113 -0.56109,2.4417 -0.31675,1.243 -0.46154,1.243 4.7783,0.07991 1.4389,-0.31964 1.3122,0.36403 -0.38914,2.2641 -0.47965,0.53273 -0.96834,1.0655 -1.448,1.5982 h 2.0724 c 4.0182,0 6.5974,3.001 4.8417,5.6203 -0.65159,0.96779 -0.51584,1.3229 2.2896,5.9577 1.638,2.708 2.9774,5.2208 2.9774,5.5759 0,0.48834 -0.42534,0.57712 -1.81,0.35515 -2.8055,-0.43506 -3.0679,0.23085 -1.8643,4.8922 0.55204,2.1576 0.90499,4.0221 0.76924,4.1464 -0.1267,0.1243 -0.76924,-0.0088 -1.4208,-0.30188 -0.66064,-0.293 -1.5113,-0.40843 -1.9005,-0.26637 -0.3982,0.15094 -1.6018,1.9622 -2.6788,4.031 -1.8552,3.5427 -1.9819,3.6758 -2.2263,2.3973 -0.44345,-2.2907 -1.6018,-1.909 -3.9729,1.3318 -1.1946,1.6337 -2.3349,2.9744 -2.534,2.9744 -0.20815,0 -0.62444,-0.293 -0.92309,-0.65703 -0.82354,-0.95892 -1.4661,-0.51497 -3.2761,2.2463 -0.89594,1.3673 -1.7285,2.4861 -1.8552,2.4861 -0.13575,0 -0.96834,-1.1187 -1.8643,-2.4861 v 0 z M 18.305,16.749 c 3.7286,0 6.6517,2.9389 6.6517,6.6769 0,3.738 -2.9231,6.6769 -6.6517,6.6769 -3.7286,0 -6.6607,-2.9389 -6.6607,-6.6769 0,-3.738 2.9322,-6.6769 6.6607,-6.6769 z m 26.009,0 c 3.7195,0 6.6517,2.9389 6.6517,6.6769 0,3.738 -2.9322,6.6769 -6.6517,6.6769 -3.7286,0 -6.6607,-2.9389 -6.6607,-6.6769 0,-3.738 2.9322,-6.6769 6.6607,-6.6769 z"
       fill="none"
       stroke="#190d00"
       stroke-linecap="round"
       stroke-linejoin="round"
       stroke-width="5.3784"
       id="path4" /><linearGradient
       id="gradient0"
       x1="73.970001"
       x2="73.910004"
       y1="3.0799999"
       y2="43.040001"
       gradientTransform="matrix(0.9346,0,0,0.9249,1.5735,5.712)"
       gradientUnits="userSpaceOnUse"><stop
         stop-color="#ffcf97"
         offset="0"
         id="stop6" /><stop
         stop-color="#ff5500"
         offset=".99"
         id="stop8" /></linearGradient><path
       d="m 29.555,59.624 c -1.8692,-2.8764 -2.5328,-3.3389 -3.3833,-2.34 -0.30842,0.37921 -0.73833,0.68443 -0.95329,0.68443 -0.20561,0 -1.3832,-1.3966 -2.6169,-3.0984 -2.4487,-3.3759 -3.6449,-3.7736 -4.1029,-1.3874 -0.25234,1.3411 -0.38319,1.1931 -2.2991,-2.4972 -1.1122,-2.155 -2.3552,-4.0418 -2.7664,-4.199 -0.40188,-0.14798 -1.2804,-0.02775 -1.9627,0.27747 -0.67291,0.30522 -1.3365,0.44395 -1.4673,0.31447 -0.14019,-0.12949 0.2243,-2.0718 0.79441,-4.3193 1.243,-4.8557 0.97198,-5.5494 -1.9253,-5.0962 -1.4299,0.23122 -1.8692,0.13874 -1.8692,-0.36996 0,-0.36996 1.3832,-2.9874 3.0748,-5.8084 2.8973,-4.828 3.0374,-5.1979 2.3645,-6.2061 -1.7384,-2.6267 0.85049,-5.8546 4.7104,-5.8546 1.0187,0 1.8505,-0.12949 1.8505,-0.28672 0,-0.15723 -0.54207,-0.91565 -1.2056,-1.6833 -0.65422,-0.76767 -1.1963,-1.5723 -1.1963,-1.7851 0,-0.20348 1.4206,-0.11099 3.1496,0.21273 1.0561,0.19423 2.1028,0.38846 3.1589,0.58269 -0.10281,-0.39771 -0.19627,-0.78616 -0.29907,-1.1746 -0.16823,-0.63818 -0.42057,-1.7758 -0.57011,-2.5157 -0.09346,-0.4532 -0.18692,-0.89715 -0.28038,-1.3504 1.0094,0.39771 2.0187,0.80466 3.0281,1.2116 1.0094,0.39771 2.0187,0.80466 3.0281,1.2024 0.28038,-0.36071 0.56076,-0.73067 0.84114,-1.1006 0.4673,-0.60118 1.2243,-1.896 1.6729,-2.8672 0.44861,-0.97115 0.96264,-1.7758 1.1496,-1.7758 0.17757,0 0.6916,0.80466 1.1402,1.7758 0.44861,0.97114 1.2056,2.266 1.6729,2.8672 0.28038,0.36996 0.56076,0.73992 0.84114,1.1006 1.0094,-0.39771 2.0187,-0.80466 3.0281,-1.2024 1.0094,-0.40696 2.0187,-0.81391 3.0281,-1.2116 -0.09346,0.4532 -0.18692,0.89715 -0.28038,1.3504 -0.14954,0.73992 -0.41122,1.8868 -0.57945,2.5435 -0.32711,1.2949 -0.47665,1.2949 4.9347,0.08324 1.486,-0.33296 1.3552,0.37921 -0.40188,2.3585 -0.49534,0.55494 -1,1.1099 -1.4954,1.6648 h 2.1402 c 4.1496,0 6.8132,3.1262 5.0001,5.8546 -0.67291,1.0081 -0.53272,1.3781 2.3645,6.2061 1.6916,2.8209 3.0748,5.4384 3.0748,5.8084 0,0.5087 -0.43926,0.60118 -1.8692,0.36996 -2.8973,-0.4532 -3.1683,0.24047 -1.9253,5.0962 0.57011,2.2475 0.9346,4.1898 0.79441,4.3193 -0.13084,0.12949 -0.79441,-0.0092 -1.4673,-0.31447 -0.68226,-0.30522 -1.5608,-0.42545 -1.9627,-0.27747 -0.41122,0.15723 -1.6542,2.044 -2.7664,4.199 -1.9159,3.6904 -2.0468,3.8291 -2.2991,2.4972 -0.45795,-2.3862 -1.6542,-1.9885 -4.1029,1.3874 -1.2337,1.7018 -2.4113,3.0984 -2.6169,3.0984 -0.21496,0 -0.64487,-0.30522 -0.95329,-0.68443 -0.85049,-0.99889 -1.5141,-0.53644 -3.3833,2.34 -0.92525,1.4243 -1.7851,2.5897 -1.9159,2.5897 -0.14019,0 -1,-1.1654 -1.9253,-2.5897 v 10e-7 z"
       fill="url(#gradient0)"
       stroke-width="0.92974"
       id="path11"
       style="fill:url(#gradient0)" /><linearGradient
       id="gradient1"
       x1="73.970001"
       x2="73.910004"
       y1="3.0799999"
       y2="43.040001"
       gradientUnits="userSpaceOnUse"><stop
         stop-color="#ffcf97"
         offset="0"
         id="stop13" /><stop
         stop-color="#e28206"
         offset=".99"
         id="stop15" /></linearGradient><linearGradient
       id="gradient2"
       x1="73.970001"
       x2="73.910004"
       y1="3.0799999"
       y2="43.040001"
       gradientTransform="matrix(0.9346,0,0,0.8654,2.1279,5.4269)"
       gradientUnits="userSpaceOnUse"><stop
         stop-color="#ffcf97"
         offset="0"
         id="stop18" /><stop
         stop-color="#ff5500"
         offset=".99"
         id="stop20" /></linearGradient><path
       d="m 18.409,15.431 c 3.8506,0 6.8693,2.8645 6.8693,6.5078 0,3.6433 -3.0188,6.5078 -6.8693,6.5078 -3.8505,0 -6.8787,-2.8645 -6.8787,-6.5078 0,-3.6433 3.0281,-6.5078 6.8787,-6.5078 z"
       fill="url(#gradient2)"
       stroke-width="0.89934"
       id="path23"
       style="fill:url(#gradient2)" /><path
       d="m 17.406,16.884 c 2.3739,0 4.2337,1.7654 4.2337,4.0068 0,2.2414 -1.8599,4.0068 -4.2337,4.0068 -2.3738,0 -4.2337,-1.7654 -4.2337,-4.0068 0,-2.2414 1.8599,-4.0068 4.2337,-4.0068 z"
       fill="#ffffff"
       stroke-width="0.89934"
       id="path25" /><linearGradient
       id="gradient3"
       x1="73.970001"
       x2="73.910004"
       y1="3.0799999"
       y2="43.040001"
       gradientTransform="matrix(0.9346,0,0,0.8654,1.6168,5.4978)"
       gradientUnits="userSpaceOnUse"><stop
         stop-color="#ffcf97"
         offset="0"
         id="stop27" /><stop
         stop-color="#ff5500"
         offset=".99"
         id="stop29" /></linearGradient><path
       d="m 44.758,15.502 c 3.8412,0 6.8693,2.8645 6.8693,6.5078 0,3.6433 -3.0281,6.5078 -6.8693,6.5078 -3.8506,0 -6.8787,-2.8645 -6.8787,-6.5078 0,-3.6433 3.0281,-6.5078 6.8787,-6.5078 z"
       fill="url(#gradient3)"
       stroke-width="0.89934"
       id="path32"
       style="fill:url(#gradient3)" /><path
       d="m 45.155,17.253 c 2.3645,0 4.2337,1.7654 4.2337,4.0068 0,2.2414 -1.8692,4.0068 -4.2337,4.0068 -2.3739,0 -4.2337,-1.7654 -4.2337,-4.0068 0,-2.2414 1.8599,-4.0068 4.2337,-4.0068 z"
       fill="#ffffff"
       stroke-width="0.89934"
       id="path34" /><linearGradient
       id="gradient4"
       x1="73.970001"
       x2="73.910004"
       y1="3.0799999"
       y2="43.040001"
       gradientUnits="userSpaceOnUse"><stop
         stop-color="#ffcf97"
         offset="0"
         id="stop36" /><stop
         stop-color="#ff5500"
         offset=".99"
         id="stop38" /></linearGradient><path
       transform="matrix(0.9346,0,0,0.8654,1.1307,4.0014)"
       d="m 32.65,14.84 c 12.22,0 21.82,8.01 21.82,18.21 0,10.2 -9.6,18.21 -21.82,18.21 -12.23,0 -21.83,-8.01 -21.83,-18.21 0,-10.2 9.6,-18.21 21.83,-18.21 z"
       fill="url(#gradient4)"
       stroke-width="0.99963"
       id="path41"
       style="fill:url(#gradient4)" /><path
       transform="matrix(0.9346,0,0,0.8654,1.1307,4.0014)"
       d="m 42.89,51.219 c 1.0867,-2.2881 2.1994,-8.4747 -2.6967,-10.601 -3.8299,-1.6636 -4.5819,-4.5149 -7.5232,-4.7373 v -0.01 h -0.38 v 0.01 c -2.8997,0.20712 -5.4529,4.2915 -8.7237,5.6072 -3.9286,1.5803 -2.7465,7.4581 -1.5861,9.877 1.0877,2.2669 5.9341,5.0401 10.704,4.9668 4.615,-0.07087 9.1579,-2.9143 10.205,-5.1123 z"
       fill="#ffffff"
       id="path43" /><path
       d="m 37.169,39.658 c 0,1.125 -2.5669,5.0297 -5.7632,5.0297 -3.2057,0 -5.2771,-3.7383 -5.2771,-4.8633 0,-1.1337 1.8115,-2.5376 5.0172,-2.5376 3.1963,0 6.0231,1.2376 6.0231,2.3712 z"
       fill="#000000"
       stroke-width="0.89934"
       id="path45" /><path
       d="m 23.687,32.113 c 1.4884,0 2.6589,1.0335 2.6589,2.3695 0,1.3234 -1.1705,2.3695 -2.6589,2.3695 -1.4884,0 -4.8245,-3.0778 -4.8245,-4.4012 0,-1.336 3.3361,-0.33777 4.8245,-0.33777 z"
       fill="#190d00"
       stroke-width="1.3496"
       id="path47" /><path
       d="m 23.325,33.035 c 0.90846,0 1.6229,0.56779 1.6229,1.3018 0,0.72704 -0.71442,1.3018 -1.6229,1.3018 -0.90846,0 -2.9447,-1.6909 -2.9447,-2.4179 0,-0.73397 2.0362,-0.18556 2.9447,-0.18556 z"
       fill="#ffffff"
       stroke-width="0.78149"
       id="path49" /><path
       d="m 39.688,32.368 c 1.5806,0 5.3823,-1.6412 5.3823,-0.29153 0,1.3369 -3.8017,5.079 -5.3823,5.079 -1.5806,0 -2.8235,-1.0568 -2.8235,-2.3937 0,-1.3497 1.243,-2.3937 2.8235,-2.3937 z"
       fill="#190d00"
       stroke-width="1.3978"
       id="path51" /><path
       d="m 40.136,33.123 c 0.97268,0 3.3123,-0.9296 3.3123,-0.16512 0,0.75726 -2.3396,2.8768 -3.3123,2.8768 -0.97268,0 -1.7376,-0.59859 -1.7376,-1.3559 0,-0.76447 0.76493,-1.3558 1.7376,-1.3558 z"
       fill="#ffffff"
       stroke-width="0.82527"
       id="path53" /><path
       d="m 38,43 c 5.8547,-3.0587 13.257,-2.6692 19.946,-2.8602 M 38,45 c 6.9319,0.6128 12.166,-0.34525 20.027,1.0322 M 37,48 c 5.8572,0.12833 13.875,0.09788 19.129,4.2456"
       fill="none"
       stroke="#000000"
       id="path55" /><path
       transform="matrix(-1.0776,0,0,1,66.708,0)"
       d="m 38,43 c 5.9911,-2.0269 11.452,-3.2545 17.807,-3.3847 M 38,45 c 6.2745,-0.18708 12.085,0.475 18.681,2.5672 M 37,48.00002 c 5.7976,0.12903 9.6758,0.79688 15,5"
       fill="none"
       stroke="#000000"
       id="path57" /><path
       d="m 24.898,51.264 c 7.2885,-2.5598 13.334,0.0496 13.334,0.0496 -3.7535,-2.0572 -4.3297,-3.0695 -6.8292,-6.7325 0,0 -0.69906,1.3153 -2.5439,3.5544 -1.1729,1.4236 -3.9605,3.1285 -3.9605,3.1285 z"
       fill="#000000"
       stroke-width="0.85817"
       id="path59" /></g></svg>
