<?xml version="1.0" encoding="UTF-8" standalone="yes"?>
<svg version="1.1" width="64" height="64" color-interpolation="linearRGB"
     xmlns:svg="http://www.w3.org/2000/svg" xmlns="http://www.w3.org/2000/svg">
 <g>
  <path style="fill:#000000; fill-opacity:0.4156"
        d="M32 16C23.16 16 16 23.16 16 32C16 40.83 23.16 48 32 48C40.83 48 48 40.83 48 32C48 23.16 40.83 16 32 16z"
        transform="matrix(1.7187,0,0,0.4375,-18.5,42)"
  />
  <path style="fill:none; stroke:#000000; stroke-width:3; stroke-linecap:round; stroke-linejoin:round"
        d="M31 58C31 58 41.77 65.79 51 56C67 39 55 24 55 24C55 24 55.03 23.48 56 23C57.77 22.11 60 21 60 21H55L58 19L57 17L60 14L55 15L58 9L53 12V8L50 12L47 9V12L42 10L46 17H41L46 22C46 22 43.42 21.85 40 23C37 24 36 26 36 26C36 26 35.25 24.28 35 23C34.75 21.78 35 21 35 21C35 21 36 18 34 17C32.28 16.14 29 17 29 17C29 17 27.8 16.73 27 17C26.31 17.22 26 18 26 18V14C26 14 28.95 14.51 31 14C32.95 13.51 34 12 34 12C34 12 33.28 10.02 32 9C30.78 8.03 29 8 29 8V4L26 8C26 8 24.32 7.73 23 8C21.84 8.23 21 9 21 9C21 9 21.25 10.75 22 12C22.75 13.25 24 14 24 14V17C24 17 20.69 16 18 16C15.72 16 14 17 14 17L13 15C13 15 18 13 17 11C15.38 7.77 10 9 10 9L9 8C9 8 10 7.01 10 6C10 5 9 4 8 4C7 4 6 4.89 6 6C6 7 7 8 7 8V10C7 10 3 10 3 13C3 17 7 16 7 16L8 17C8 17 7.56 18.13 8 19C8.55 20.1 10 22 10 22C10 22 0.49 28.39 6 35C11 41 17 41 17 41C17 41 22 44 19 51C18.16 52.94 18.43 55.64 17 56C13 57 10 58 10 58C10 58 13 61 20 61C28 61 31 58 31 58z
           M29 55C29 55 23 57 23 48C23 39 27 40 27 40C27 40 26.51 43.32 27 47C27.5 50.82 29 55 29 55z"
        transform="matrix(1,0,0,1,0,-1)"
  />
  <path style="fill:#ffffff"
        d="M27.4 48.36C29.3 48.22 31.16 47.76 33.06 47.59C32.54 47.99 32.03 48.46 31.38 48.59C30.04 48.59 28.72 48.44 27.4 48.36V48.36z"
        transform="matrix(1.2873,0,0,1.2868,-12.4243,-4.4586)"
  />
  <path style="fill:#251405"
        d="M28.05 35.41C27.13 37.07 27.21 39.06 27.29 40.91C27.4 42.2 27.6 43.65 28.59 44.58C29.66 44.97 30.83 44.97 31.94 45.13C31.79 43.82 31.45 42.53 30.96 41.31C30.36 39.96 30.87 38.48 30.74 37.06C30.63 35.99 30.55 34.91 30.58 33.82C29.69 34.23 28.55 34.46 28.05 35.41
           M14.86 5.3C15.71 5.02 16.72 5.32 17.27 6.03C18.16 7.02 17.22 8.33 17.05 9.43C18.71 9.68 20.63 9 22 10.25C22.55 10.98 22.93 12.07 22.56 12.95C21.91 13.54 20.99 13.66 20.16 13.91C20.27 14.64 20.38 15.37 20.48 16.1C22.87 16.16 25.28 16.14 27.66 15.83C28.13 15.24 28.32 14.49 28.65 13.82C28.71 13.89 28.78 13.96 28.85 14.02C28.61 15.85 27.89 17.55 27.6 19.37C29.04 18.04 28.93 15.92 29.8 14.27C29.92 14.23 30.13 14.16 30.25 14.12C30.07 14.77 29.89 15.42 29.73 16.07C31.2 15.59 32.72 14.77 34.32 15.21C35.83 15.52 37.03 16.96 37 18.51C37.01 19.36 36.29 19.92 35.79 20.5C36.19 21.35 36.62 22.19 37.06 23.01C38.56 21.64 40.41 20.78 42.17 19.83C42.8 19.47 43.53 19.52 44.23 19.52C44.21 19.61 44.2 19.71 44.18 19.8C43.33 20.07 42.48 20.35 41.62 20.62C41.67 21.52 41.75 22.42 41.83 23.32C42.72 23.19 43.65 23.16 44.48 22.79C45.1 21.9 44.95 20.76 44.79 19.75C45.05 19.74 45.32 19.74 45.58 19.73C45.7 19.82 45.93 19.98 46.03 20.05C45.66 20.29 45.56 20.58 45.76 20.96C46.16 21.04 46.38 20.87 46.43 20.41C46.8 20.45 47.17 20.5 47.54 20.53C48.72 20.96 49.87 21.44 51.06 21.82C51.5 22.09 51.91 22.4 52.32 22.69C52.24 22.39 52.16 22.07 52.09 21.76C52.48 21.74 52.87 21.71 53.26 21.67C53.2 21.52 53.08 21.21 53.02 21.06C53.38 21.25 53.72 21.44 54.07 21.63C53.84 21.89 53.61 22.15 53.39 22.41C54.77 24.07 55.59 26.1 55.79 28.25C56.5 30.62 55.8 33.03 55.47 35.4C55.26 36.47 54.78 37.44 54.51 38.49C54.21 39.53 54.04 40.66 53.37 41.55C52.78 42.36 52.09 43.1 51.74 44.05C50.89 46.17 49.6 48.38 47.42 49.33C45.09 50.45 42.46 50.3 39.94 50.3C38.89 50.27 37.78 50.28 36.82 49.77C35.88 49.27 35.04 48.58 34.19 47.94C32.35 49.33 30.02 49.89 27.8 50.31C25.49 50.42 23.05 50.55 20.86 49.72C21.28 49.53 21.7 49.33 22.13 49.14C22.6 49.12 23.06 49.1 23.53 49.08C26.16 49.23 28.79 49 31.38 48.59C32.03 48.46 32.54 47.99 33.06 47.59C32.85 47.21 32.64 46.83 32.41 46.46C31.24 45.67 29.81 45.84 28.49 45.68C28.05 45.67 27.84 45.25 27.64 44.94C27 43.75 26.62 42.45 26.25 41.16C26.21 40.78 26.16 40.4 26.12 40.02C26.3 38.22 26.79 36.48 27.21 34.73C26.67 34.74 26.12 34.75 25.58 34.77C25.04 34.8 24.5 34.83 23.96 34.86C24.61 36.38 25.32 37.93 25.33 39.61C25.33 41.04 25.18 42.5 24.76 43.89C24.38 44.24 23.97 44.57 23.52 44.85C24.24 42.58 25 40.09 24.23 37.74C23.74 36.46 23.06 35.03 21.71 34.49C20.31 33.85 18.8 33.46 17.44 32.71C15.39 31.64 13.83 29.74 13 27.59C12.42 25.6 12.46 23.33 13.52 21.51C14.19 20.23 15.32 19.29 16.12 18.1C15.9 17.15 15.49 16.26 15.25 15.31C14.37 15.21 13.41 15.33 12.61 14.86C11.72 14.06 11.63 12.62 12.33 11.67C13.03 10.73 14.17 10.3 15.13 9.68C14.73 9.15 14.27 8.66 13.98 8.06C13.54 7.1 13.89 5.77 14.86 5.3"
        transform="matrix(1.2873,0,0,1.2868,-12.4243,-4.4586)"
  />
  <path style="fill:#0e2802"
        d=""
        transform="matrix(1.2873,0,0,1.2868,-12.4243,-4.4586)"
  />
  <path style="fill:#fa3782"
        d="M15.11 5.77C16.06 5.35 17.27 6.29 17.06 7.33C17.02 8.5 15.22 9.03 14.53 8.09C13.92 7.38 14.24 6.12 15.11 5.77V5.77z"
        transform="matrix(1.2873,0,0,1.2868,-12.4243,-4.4586)"
  />
  <path style="fill:#081703"
        d="M30.98 9.33C31.85 8.91 32.66 7.49 31.9 6.73C31.03 7.27 31.1 8.45 30.98 9.33
           M29.88 8.81C30.96 7.87 31.01 5.65 32.85 5.79C32.81 6.96 32.18 8.05 32.21 9.2C33.4 10.1 34.81 10.65 36.1 11.36C36 12.53 34.8 12.95 33.89 13.39C32.72 13.83 31.44 13.74 30.25 14.12C30.13 14.16 29.92 14.23 29.8 14.27C29.49 14.19 29.16 14.1 28.85 14.02C28.78 13.96 28.71 13.89 28.65 13.82C28.08 13.2 27.29 12.84 26.78 12.18C26.32 11.33 26.09 10.37 25.71 9.48C27.09 9.22 28.52 9.21 29.88 8.81"
        transform="matrix(1.2873,0,0,1.2868,-12.4243,-4.4586)"
  />
  <path style="fill:#081703"
        d=""
        transform="matrix(1.2873,0,0,1.2868,-12.4243,-4.4586)"
  />
  <path style="fill:#bac220"
        d="M30.98 9.33C31.1 8.45 31.03 7.27 31.9 6.73C32.66 7.49 31.85 8.91 30.98 9.33V9.33z"
        transform="matrix(1.2873,0,0,1.2868,-12.4243,-4.4586)"
  />
  <path style="fill:#122605"
        d="M52.04 10.81C52.72 10.12 53.42 9.47 54.16 8.84C54.08 9.25 54 9.66 53.93 10.07C54.39 10.05 54.85 10.04 55.31 10.03C54.22 11.21 53.17 12.44 52.35 13.82C53.96 13.87 55.56 13.69 57.15 13.94C56.12 14.38 55.08 14.84 54.21 15.55C54.75 15.62 55.3 15.67 55.85 15.72C55.65 15.92 55.46 16.11 55.27 16.31C55.66 16.52 56.06 16.74 56.46 16.97C55.42 17.36 54.23 17.59 53.48 18.51C53.23 18.5 52.99 18.48 52.74 18.47C52.61 18 52.49 17.54 52.34 17.08C52.9 16.81 53.47 16.52 54.02 16.25C53.61 16.12 53.21 16 52.8 15.87C53.34 15.42 53.88 14.97 54.42 14.52C53.64 14.62 52.85 14.73 52.07 14.54C51.91 14.5 51.57 14.44 51.41 14.4C51.99 13.35 52.53 12.27 53.13 11.22C52.77 11.08 52.41 10.95 52.04 10.81V10.81z"
        transform="matrix(1.2873,0,0,1.2868,-12.4243,-4.4586)"
  />
  <path style="fill:#1912cd"
        d="M16.01 9.1C16.38 9.53 16.7 9.99 16.96 10.49C16.64 10.6 16.34 10.72 16.02 10.83C16.01 10.25 16 9.68 16.01 9.1V9.1z"
        transform="matrix(1.2873,0,0,1.2868,-12.4243,-4.4586)"
  />
  <path style="fill:#1912cd"
        d="M18.11 18.41C17.85 17.93 18.47 17.74 18.73 17.47C19.18 19.76 20.37 21.88 20.43 24.24C20.09 24.19 19.76 24.13 19.43 24.07C18.98 22.19 18.65 20.27 18.11 18.41V18.41z"
        transform="matrix(1.2873,0,0,1.2868,-12.4243,-4.4586)"
  />
  <path style="fill:#10992d"
        d="M26.4 9.95C27 9.79 27.62 9.65 28.25 9.54C27.94 9.94 27.68 10.44 27.17 10.59C26.92 10.38 26.65 10.16 26.4 9.95V9.95z"
        transform="matrix(1.2873,0,0,1.2868,-12.4243,-4.4586)"
  />
  <path style="fill:#edc4a2"
        d="M18.34 10.6C19.27 9.94 20.41 9.96 21.47 10.27C21.2 10.79 21.02 11.48 20.41 11.7C19.83 11.75 19.36 11.34 18.91 11.02C18.77 10.93 18.49 10.71 18.34 10.6V10.6z"
        transform="matrix(1.2873,0,0,1.2868,-12.4243,-4.4586)"
  />
  <path style="fill:#edc4a2"
        d="M15.7 13.96C17.01 13.94 18.29 13.59 19.6 13.5C18.59 14.53 17.08 14.56 15.75 14.54C14.59 14.5 13.3 14.74 12.38 13.88C13.49 13.87 14.59 13.97 15.7 13.96V13.96z"
        transform="matrix(1.2873,0,0,1.2868,-12.4243,-4.4586)"
  />
  <path style="fill:#f2d5b4"
        d="M17.06 11.26C17.26 10.88 17.46 10.5 17.66 10.13C17.89 10.29 18.11 10.45 18.34 10.6C18.49 10.71 18.77 10.93 18.91 11.02C18.73 11.13 18.38 11.35 18.19 11.46C18.54 11.79 18.9 12.13 19.25 12.48C18.12 12.86 16.95 13.11 15.75 13.18C15.78 13.07 15.81 12.97 15.84 12.86C15.96 12.41 16.09 11.97 16.22 11.51C16.5 11.44 16.78 11.34 17.06 11.26V11.26z"
        transform="matrix(1.2873,0,0,1.2868,-12.4243,-4.4586)"
  />
  <path style="fill:#18be0e"
        d="M26.87 11.6C27.45 10.89 28.23 10.4 29.11 10.15C28.64 10.99 27.98 11.94 26.87 11.6V11.6z"
        transform="matrix(1.2873,0,0,1.2868,-12.4243,-4.4586)"
  />
  <path style="fill:#046925"
        d="M49.17 12.86C49.5 11.96 49.84 11.05 50.17 10.15C50.27 11.16 50.38 12.16 50.5 13.17C50.94 12.54 51.37 11.91 51.77 11.26C51.84 11.15 51.98 10.93 52.04 10.81C52.41 10.95 52.77 11.08 53.13 11.22C52.53 12.27 51.99 13.35 51.41 14.4C50.03 15.81 48.95 17.46 47.81 19.04C47.95 17.15 48.22 15.24 47.8 13.36C46.83 15.66 46.84 18.27 47.83 20.55C47.73 20.55 47.64 20.54 47.54 20.53C47.17 20.5 46.8 20.45 46.43 20.41C46.33 20.32 46.13 20.14 46.03 20.05C45.93 19.98 45.7 19.82 45.58 19.73C45.65 19.69 45.72 19.65 45.79 19.6C45.95 19.49 46.27 19.26 46.43 19.15C45.71 18.17 44.9 17.07 43.52 17.24C43.68 17.58 43.84 17.93 44.01 18.26C43.58 17.93 43.14 17.6 42.71 17.27C43.8 17 44.9 16.76 45.99 16.5C45.81 16.19 45.62 15.89 45.46 15.57C45.25 15.21 45.08 14.81 44.93 14.42C44.47 13 43.39 11.96 42.45 10.86C42.8 10.93 43.13 11.03 43.46 11.18C44.55 12.09 45.8 12.84 47.21 13.14C47.03 12.27 46.85 11.41 46.65 10.54C47.47 11.34 48.31 12.11 49.17 12.86V12.86z"
        transform="matrix(1.2873,0,0,1.2868,-12.4243,-4.4586)"
  />
  <path style="fill:#797569"
        d="M13.95 11.12C14.26 10.86 14.53 10.42 15 10.48C15.62 10.45 15.86 11.14 16.22 11.51C16.09 11.97 15.96 12.41 15.84 12.86C15.74 12.75 15.53 12.53 15.44 12.43C15.2 12.17 14.96 11.92 14.71 11.66C14.9 11.52 15.07 11.4 15.25 11.27C14.81 11.23 14.38 11.17 13.95 11.12V11.12z"
        transform="matrix(1.2873,0,0,1.2868,-12.4243,-4.4586)"
  />
  <path style="fill:#19c81a"
        d="M27.76 12.47C28.41 11.67 29.15 10.96 30.03 10.44C29.85 11.26 29.52 12.04 29.08 12.78C28.64 12.67 28.2 12.57 27.76 12.47V12.47z"
        transform="matrix(1.2873,0,0,1.2868,-12.4243,-4.4586)"
  />
  <path style="fill:#11d012"
        d="M30.77 10.35C31.25 11.19 31.27 12.15 31.03 13.06C30.76 13.08 30.2 13.11 29.93 13.13C30.09 12.18 30.36 11.24 30.77 10.35V10.35z"
        transform="matrix(1.2873,0,0,1.2868,-12.4243,-4.4586)"
  />
  <path style="fill:#07d21e"
        d="M32.58 10.78C33.47 11.17 34.27 11.78 34.21 12.86C33.19 12.63 32.79 11.7 32.58 10.78V10.78z"
        transform="matrix(1.2873,0,0,1.2868,-12.4243,-4.4586)"
  />
  <path style="fill:#07d21e"
        d="M47.83 20.55C46.84 18.27 46.83 15.66 47.8 13.36C48.22 15.24 47.95 17.15 47.81 19.04C48.95 17.46 50.03 15.81 51.41 14.4C51.57 14.44 51.91 14.5 52.07 14.54C51.37 16.41 49.91 17.8 48.71 19.33C50.1 19.5 51.5 19.57 52.92 19.57C52.86 19.86 52.81 20.15 52.75 20.44C51.11 20.58 49.48 20.65 47.83 20.55V20.55z"
        transform="matrix(1.2873,0,0,1.2868,-12.4243,-4.4586)"
  />
  <path style="fill:#17ad19"
        d="M34.38 11.24C34.78 10.89 35.58 11.48 35.32 11.97C34.92 12.31 34.11 11.73 34.38 11.24V11.24z"
        transform="matrix(1.2873,0,0,1.2868,-12.4243,-4.4586)"
  />
  <path style="fill:#eeceab"
        d="M13.2 11.69C13.7 11.61 14.21 11.65 14.71 11.66C14.96 11.92 15.2 12.17 15.44 12.43C14.98 12.7 14.57 13.16 14.01 13.21C13.44 13.15 12.89 12.97 12.34 12.78C12.61 12.41 12.86 12.01 13.2 11.69V11.69z"
        transform="matrix(1.2873,0,0,1.2868,-12.4243,-4.4586)"
  />
  <path style="fill:#15c11c"
        d="M31.98 13.29C31.61 12.65 31.81 11.91 31.91 11.23C32.27 11.82 33.26 13.2 31.98 13.29V13.29z"
        transform="matrix(1.2873,0,0,1.2868,-12.4243,-4.4586)"
  />
  <path style="fill:#bda183"
        d="M19.99 13.17C20.52 12.56 21.18 12.06 21.85 11.58C21.93 11.8 22.08 12.25 22.17 12.48C21.61 13.1 20.76 13.17 19.99 13.17V13.17z"
        transform="matrix(1.2873,0,0,1.2868,-12.4243,-4.4586)"
  />
  <path style="fill:#f7d60b"
        d="M28.85 14.02C29.16 14.1 29.49 14.19 29.8 14.27C28.93 15.92 29.04 18.04 27.6 19.37C27.89 17.55 28.61 15.85 28.85 14.02V14.02z"
        transform="matrix(1.2873,0,0,1.2868,-12.4243,-4.4586)"
  />
  <path style="fill:#f7d60b"
        d="M32.95 15.42C34.65 15.63 36.74 16.8 36.5 18.8C35.8 19.9 34.38 19.99 33.23 20.23C34 19.29 35.27 17.66 33.91 16.66C33.84 16.97 33.7 17.59 33.64 17.91C33.29 17.55 32.95 17.2 32.61 16.84C32.86 16.78 33.37 16.67 33.62 16.61C33.39 16.22 33.16 15.82 32.95 15.42V15.42z"
        transform="matrix(1.2873,0,0,1.2868,-12.4243,-4.4586)"
  />
  <path style="fill:#f7d60b"
        d="M26.09 23.46C26.47 22.14 26.87 20.76 27.8 19.72C27.76 21.38 27.12 22.94 26.37 24.4C26.24 24.09 25.98 23.8 26.09 23.46V23.46z"
        transform="matrix(1.2873,0,0,1.2868,-12.4243,-4.4586)"
  />
  <path style="fill:#f7d60b"
        d="M33.03 28C33.67 27.95 34.32 27.9 34.97 27.9C34.56 28.22 34.16 28.53 33.73 28.81C33.55 28.61 33.21 28.21 33.03 28V28z"
        transform="matrix(1.2873,0,0,1.2868,-12.4243,-4.4586)"
  />
  <path style="fill:#f7d60b"
        d="M27 37.96C27.13 38.95 27.13 39.96 27 40.95C26.94 39.96 26.94 38.96 27 37.96V37.96z"
        transform="matrix(1.2873,0,0,1.2868,-12.4243,-4.4586)"
  />
  <path style="fill:#066729"
        d="M52.07 14.54C52.85 14.73 53.64 14.62 54.42 14.52C53.88 14.97 53.34 15.42 52.8 15.87C53.21 16 53.61 16.12 54.02 16.25C53.47 16.52 52.9 16.81 52.34 17.08C52.49 17.54 52.61 18 52.74 18.47C52.99 18.48 53.23 18.5 53.48 18.51C54.48 18.56 55.45 18.85 56.34 19.29C56.09 19.33 55.59 19.4 55.35 19.44C54.75 19.5 54.14 19.57 53.54 19.64C53.65 19.84 53.87 20.21 53.99 20.41C53.57 20.42 53.16 20.43 52.75 20.44C52.81 20.15 52.86 19.86 52.92 19.57C51.5 19.57 50.1 19.5 48.71 19.33C49.91 17.8 51.37 16.41 52.07 14.54V14.54z"
        transform="matrix(1.2873,0,0,1.2868,-12.4243,-4.4586)"
  />
  <path style="fill:#df0c03"
        d="M16 15.49C17.23 15.2 18.5 15.06 19.76 15.1C19.64 15.86 19.53 16.8 18.73 17.12C18 17.35 17.15 17.4 16.47 17.03C16.12 16.6 16.12 16 16 15.49V15.49z"
        transform="matrix(1.2873,0,0,1.2868,-12.4243,-4.4586)"
  />
  <path style="fill:#0b2c08"
        d="M43.54 15.05C44.17 15.24 44.81 15.43 45.46 15.57C45.62 15.89 45.81 16.19 45.99 16.5C44.9 16.76 43.8 17 42.71 17.27C43.14 17.6 43.58 17.93 44.01 18.26C44.59 18.72 45.19 19.15 45.79 19.6C45.72 19.65 45.65 19.69 45.58 19.73C45.32 19.74 45.05 19.74 44.79 19.75C44.64 19.77 44.34 19.79 44.18 19.8C44.2 19.71 44.21 19.61 44.23 19.52C44.25 19.38 44.29 19.07 44.32 18.93C43.24 18.52 42.18 18.06 41.17 17.49C41.74 16.21 43.24 16.42 44.4 16.29C44.11 15.87 43.83 15.46 43.54 15.05V15.05z"
        transform="matrix(1.2873,0,0,1.2868,-12.4243,-4.4586)"
  />
  <path style="fill:#f3f995"
        d="M30.3 17.24C30.6 16.67 31.24 16.48 31.79 16.23C31.89 16.79 31.99 17.34 32.08 17.9C31.6 18.1 31.11 18.27 30.61 18.41C30.49 18.02 30.38 17.64 30.3 17.24V17.24z"
        transform="matrix(1.2873,0,0,1.2868,-12.4243,-4.4586)"
  />
  <path style="fill:#f3f995"
        d="M51.06 21.82C51.32 21.8 51.83 21.78 52.09 21.76C52.16 22.07 52.24 22.39 52.32 22.69C51.91 22.4 51.5 22.09 51.06 21.82V21.82z"
        transform="matrix(1.2873,0,0,1.2868,-12.4243,-4.4586)"
  />
  <path style="fill:#956a05"
        d="M19.48 17.34C21.93 16.67 24.53 16.16 27.06 16.67C27.14 16.75 27.32 16.93 27.41 17C27.29 17.81 26.97 18.56 26.68 19.32C24.44 19.47 22.14 19.82 19.91 19.43C19.32 18.93 19.55 18.02 19.48 17.34V17.34z"
        transform="matrix(1.2873,0,0,1.2868,-12.4243,-4.4586)"
  />
  <path style="fill:#0bb92c"
        d="M43.52 17.24C44.9 17.07 45.71 18.17 46.43 19.15C46.27 19.26 45.95 19.49 45.79 19.6C45.19 19.15 44.59 18.72 44.01 18.26C43.84 17.93 43.68 17.58 43.52 17.24V17.24z"
        transform="matrix(1.2873,0,0,1.2868,-12.4243,-4.4586)"
  />
  <path style="fill:#fddfd6"
        d="M15.25 22.29C15.96 21.3 16.49 20.15 17.49 19.42C17.26 19.99 17.01 20.55 16.78 21.12C16.44 21.95 16.12 22.79 15.89 23.65C15.87 23.74 15.85 23.84 15.82 23.93C15.67 24.99 15.66 26.08 15.87 27.13C16.23 28.12 16.64 29.08 17.08 30.02C17.12 30.1 17.15 30.18 17.19 30.26C17.15 30.41 17.08 30.7 17.04 30.85C15.22 29.5 14.08 27.4 14 25.12C14.11 24.07 14.65 23.14 15.25 22.29V22.29z"
        transform="matrix(1.2873,0,0,1.2868,-12.4243,-4.4586)"
  />
  <path style="fill:#2b1800"
        d="M53.54 19.64C54.14 19.57 54.75 19.5 55.35 19.44C55.32 19.64 55.25 20.06 55.22 20.28C54.81 20.32 54.4 20.36 53.99 20.41C53.87 20.21 53.65 19.84 53.54 19.64V19.64z"
        transform="matrix(1.2873,0,0,1.2868,-12.4243,-4.4586)"
  />
  <path style="fill:#2b1800"
        d="M37.79 40.06C38.15 39.85 38.55 39.7 38.95 39.54C38.89 40.2 38.93 40.91 38.59 41.5C37.79 41.63 37.71 40.64 37.79 40.06V40.06z"
        transform="matrix(1.2873,0,0,1.2868,-12.4243,-4.4586)"
  />
  <path style="fill:#f9b430"
        d="M42.46 21.79C42.06 22.36 43.16 22.39 43.47 22.58C43.57 22.07 43.67 21.56 43.76 21.05C43.28 21.22 42.61 21.18 42.46 21.79V21.79z
           M44.18 19.8C44.34 19.79 44.64 19.77 44.79 19.75C44.95 20.76 45.1 21.9 44.48 22.79C43.65 23.16 42.72 23.19 41.83 23.32C41.75 22.42 41.67 21.52 41.62 20.62C42.48 20.35 43.33 20.07 44.18 19.8"
        transform="matrix(1.2873,0,0,1.2868,-12.4243,-4.4586)"
  />
  <path style="fill:#6b612a"
        d="M21.06 20.06C21.83 19.94 22.55 20.22 23.24 20.52C22.53 20.79 21.79 20.94 21.04 20.78C21.04 20.6 21.05 20.25 21.06 20.06V20.06z"
        transform="matrix(1.2873,0,0,1.2868,-12.4243,-4.4586)"
  />
  <path style="fill:#848a52"
        d="M45.76 20.96C45.56 20.58 45.66 20.29 46.03 20.05C46.13 20.14 46.33 20.32 46.43 20.41C46.38 20.87 46.16 21.04 45.76 20.96V20.96z"
        transform="matrix(1.2873,0,0,1.2868,-12.4243,-4.4586)"
  />
  <path style="fill:#08541c"
        d="M47.54 20.53C47.64 20.54 47.73 20.55 47.83 20.55C49.48 20.65 51.11 20.58 52.75 20.44C52.82 20.59 52.96 20.91 53.02 21.06C53.08 21.21 53.2 21.52 53.26 21.67C52.87 21.71 52.48 21.74 52.09 21.76C51.83 21.78 51.32 21.8 51.06 21.82C49.87 21.44 48.72 20.96 47.54 20.53V20.53z"
        transform="matrix(1.2873,0,0,1.2868,-12.4243,-4.4586)"
  />
  <path style="fill:#9e0a24"
        d="M33.84 22.46C33.95 21.74 34.24 21.07 34.74 20.55C35.03 20.86 35.33 21.16 35.63 21.47C35.15 22 34.55 22.38 33.84 22.46V22.46z"
        transform="matrix(1.2873,0,0,1.2868,-12.4243,-4.4586)"
  />
  <path style="fill:#fcb62f"
        d="M46.21 22.88C46.09 23.37 46.03 23.87 45.99 24.36C46.39 24.31 46.79 24.24 47.19 24.18C47.41 23.73 47.47 23.24 47.56 22.76C47.11 22.78 46.65 22.79 46.21 22.88V22.88z
           M45.19 22.77C45.5 21.83 46.5 21.4 47.22 20.84C47.77 21.81 48.24 22.83 48.59 23.89C47.78 24.55 46.89 25.15 45.83 25.28C45.57 24.46 45.15 23.64 45.19 22.77"
        transform="matrix(1.2873,0,0,1.2868,-12.4243,-4.4586)"
  />
  <path style="fill:#fcb62f"
        d="M33.45 29.21C33.94 29.24 34.44 29.25 34.94 29.27C33.69 31 32.08 32.76 29.88 33.1C31.42 32.18 32.95 31.02 33.45 29.21V29.21z"
        transform="matrix(1.2873,0,0,1.2868,-12.4243,-4.4586)"
  />
  <path style="fill:#a2060a"
        d="M15.89 23.65C16.12 22.79 16.44 21.95 16.78 21.12C17.75 21.85 18.9 22.59 18.93 23.95C17.91 23.89 16.9 23.78 15.89 23.65V23.65z"
        transform="matrix(1.2873,0,0,1.2868,-12.4243,-4.4586)"
  />
  <path style="fill:#6a0b1b"
        d="M21 21.64C22.69 21.32 24.43 21.09 26.14 21.38C25.84 22.36 25.54 23.35 25.26 24.33C25.13 23.46 25.01 22.58 24.9 21.7C23.6 21.64 22.3 21.61 21 21.64V21.64z"
        transform="matrix(1.2873,0,0,1.2868,-12.4243,-4.4586)"
  />
  <path style="fill:#f6fb8f"
        d="M31.16 22.84C31.41 21.91 32.35 21.49 33.08 20.99C33.18 21.89 32.93 23.1 33.83 23.67C34.79 24.32 35.86 24.78 36.86 25.37C36.71 26.18 36.49 26.98 36.26 27.77C35.74 27.09 35.37 26.26 34.59 25.84C33.6 25.3 32.49 25.01 31.55 24.37C31.01 24.06 31.03 23.36 31.16 22.84V22.84z"
        transform="matrix(1.2873,0,0,1.2868,-12.4243,-4.4586)"
  />
  <path style="fill:#421303"
        d="M42.46 21.79C42.61 21.18 43.28 21.22 43.76 21.05C43.67 21.56 43.57 22.07 43.47 22.58C43.16 22.39 42.06 22.36 42.46 21.79V21.79z"
        transform="matrix(1.2873,0,0,1.2868,-12.4243,-4.4586)"
  />
  <path style="fill:#421303"
        d="M40.22 29.82C40.68 29.81 41.14 29.81 41.6 29.81C41.43 30.27 41.28 30.76 40.91 31.11C40.52 30.77 40.4 30.28 40.22 29.82V29.82z"
        transform="matrix(1.2873,0,0,1.2868,-12.4243,-4.4586)"
  />
  <path style="fill:#421303"
        d="M37.07 31.45C37.5 31.41 37.95 31.38 38.39 31.35C38.15 31.92 38.21 32.9 37.35 32.78C37.24 32.34 37.16 31.89 37.07 31.45V31.45z"
        transform="matrix(1.2873,0,0,1.2868,-12.4243,-4.4586)"
  />
  <path style="fill:#421303"
        d="M45.99 32.26C45.93 31.56 46.69 31.45 47.19 31.28C47.17 31.8 47.15 32.32 47.13 32.84C46.66 32.77 45.8 33.05 45.99 32.26V32.26z"
        transform="matrix(1.2873,0,0,1.2868,-12.4243,-4.4586)"
  />
  <path style="fill:#421303"
        d="M45.23 45.32C45.35 44.55 45.82 44.07 46.59 44C46.57 44.41 46.55 44.83 46.53 45.25C46.1 45.27 45.67 45.3 45.23 45.32V45.32z"
        transform="matrix(1.2873,0,0,1.2868,-12.4243,-4.4586)"
  />
  <path style="fill:#75070e"
        d="M28.24 21.48C29.06 21.42 29.89 21.39 30.72 21.36C30.59 22.21 30.76 23.35 29.91 23.89C29.14 24.24 28.27 24.01 27.47 23.99C27.72 23.15 27.99 22.31 28.24 21.48V21.48z"
        transform="matrix(1.2873,0,0,1.2868,-12.4243,-4.4586)"
  />
  <path style="fill:#a30610"
        d="M20.65 21.65C20.77 21.65 20.88 21.64 21 21.64C22.3 21.61 23.6 21.64 24.9 21.7C25.01 22.58 25.13 23.46 25.26 24.33C23.88 24.44 22.49 24.43 21.09 24.29C20.96 23.41 20.8 22.52 20.65 21.65V21.65z"
        transform="matrix(1.2873,0,0,1.2868,-12.4243,-4.4586)"
  />
  <path style="fill:#fac038"
        d="M38.8 22.04C39.52 21.91 40.23 21.75 40.96 21.6C41.13 22.61 41.39 24 40.06 24.29C39.91 24.33 39.58 24.39 39.43 24.42C39.69 23.99 39.95 23.53 40.22 23.1C39.75 22.75 39.27 22.4 38.8 22.04V22.04z"
        transform="matrix(1.2873,0,0,1.2868,-12.4243,-4.4586)"
  />
  <path style="fill:#cfa350"
        d="M48.53 21.63C49.09 21.66 49.65 21.69 50.21 21.72C49.86 22.2 49.51 22.69 49.16 23.18C48.93 22.67 48.72 22.16 48.53 21.63V21.63z"
        transform="matrix(1.2873,0,0,1.2868,-12.4243,-4.4586)"
  />
  <path style="fill:#694809"
        d="M37.74 23.07C38.04 22.68 38.42 22.35 38.8 22.04C39.27 22.4 39.75 22.75 40.22 23.1C39.95 23.53 39.69 23.99 39.43 24.42C39.58 24.39 39.91 24.33 40.06 24.29C40.15 24.32 40.24 24.35 40.33 24.38C40.07 24.5 39.57 24.74 39.32 24.86C38.89 24.83 38.46 24.78 38.03 24.7C37.92 24.17 37.63 23.63 37.74 23.07V23.07z"
        transform="matrix(1.2873,0,0,1.2868,-12.4243,-4.4586)"
  />
  <path style="fill:#fcc12f"
        d="M49.19 24.23C49.63 23.5 50.15 22.81 50.74 22.19C51.52 22.91 52.19 23.77 52.23 24.88C51.66 24.36 51.17 23.4 50.27 23.83C50.13 24.01 49.86 24.38 49.73 24.56C49.59 24.49 49.32 24.32 49.19 24.23V24.23z"
        transform="matrix(1.2873,0,0,1.2868,-12.4243,-4.4586)"
  />
  <path style="fill:#8d0f16"
        d="M34.87 23.09C35.29 22.85 35.72 22.64 36.16 22.43C36.3 22.97 36.42 23.5 36.52 24.05C36 23.75 34.85 23.92 34.87 23.09V23.09z"
        transform="matrix(1.2873,0,0,1.2868,-12.4243,-4.4586)"
  />
  <path style="fill:#2f2405"
        d="M46.21 22.88C46.65 22.79 47.11 22.78 47.56 22.76C47.47 23.24 47.41 23.73 47.19 24.18C46.79 24.24 46.39 24.31 45.99 24.36C46.03 23.87 46.09 23.37 46.21 22.88V22.88z"
        transform="matrix(1.2873,0,0,1.2868,-12.4243,-4.4586)"
  />
  <path style="fill:#f7c048"
        d="M52.73 22.89C53.98 23.35 54.21 24.78 54.65 25.87C53.64 25.16 52.68 24.22 52.73 22.89V22.89z"
        transform="matrix(1.2873,0,0,1.2868,-12.4243,-4.4586)"
  />
  <path style="fill:#f7c048"
        d="M47.63 25.24C48.57 24.51 49.96 25.42 49.97 26.5C49.9 27.04 49.55 27.5 49.29 27.96C49.08 27.28 48.9 26.6 48.66 25.95C48.18 26.12 47.7 26.32 47.21 26.5C47.28 26.84 47.35 27.16 47.43 27.49C47.74 27.72 48.05 27.97 48.37 28.2C48.46 28.28 48.61 28.42 48.69 28.49C48.49 28.56 48.06 28.72 47.86 28.81C46.88 27.95 46.18 25.99 47.63 25.24V25.24z"
        transform="matrix(1.2873,0,0,1.2868,-12.4243,-4.4586)"
  />
  <path style="fill:#f7c048"
        d="M37.29 29.03C37.19 28.19 37.19 27.34 37.41 26.51C37.72 27.24 38.02 28 38.41 28.7C37.66 29.51 36.65 29.98 35.55 30.07C35.75 29.62 35.95 29.16 36.14 28.71C36.34 29.02 36.53 29.33 36.73 29.63C36.88 29.49 37.15 29.18 37.29 29.03V29.03z"
        transform="matrix(1.2873,0,0,1.2868,-12.4243,-4.4586)"
  />
  <path style="fill:#f6bb3c"
        d="M41.69 23.92C42.69 23.85 43.7 23.77 44.71 23.69C44.83 24.26 45.02 24.84 44.97 25.42C44.79 25.86 44.34 26.1 44.02 26.44C43.8 25.85 43.57 25.27 43.36 24.68C42.87 24.69 42.37 24.7 41.89 24.71C41.84 24.51 41.74 24.11 41.69 23.92V23.92z"
        transform="matrix(1.2873,0,0,1.2868,-12.4243,-4.4586)"
  />
  <path style="fill:#b47d30"
        d="M50.27 23.83C51.17 23.4 51.66 24.36 52.23 24.88C52.13 25.23 52.06 25.58 51.97 25.94C51.86 26.26 51.74 26.58 51.65 26.92C51.09 26.44 50.56 25.95 50.08 25.39C50.51 25.05 50.94 24.7 51.34 24.34C50.99 24.17 50.63 24 50.27 23.83V23.83z"
        transform="matrix(1.2873,0,0,1.2868,-12.4243,-4.4586)"
  />
  <path style="fill:#b47d30"
        d="M31.34 39.54C32.21 40.2 32.58 41.21 32.54 42.28C31.4 41.85 31.46 40.55 31.34 39.54V39.54z"
        transform="matrix(1.2873,0,0,1.2868,-12.4243,-4.4586)"
  />
  <path style="fill:#9e0404"
        d="M15.87 27.13C15.66 26.08 15.67 24.99 15.82 23.93C16.67 24.36 17.55 24.78 18.52 24.84C21.66 25.16 24.84 25.17 27.97 24.69C28.89 24.57 29.9 24.32 30.76 24.81C32.08 25.51 33.5 26.03 34.88 26.6C34.86 26.73 34.82 26.99 34.8 27.1C33.88 27.38 32.93 27.47 31.99 27.6C32.01 27.77 32.06 28.1 32.09 28.27C32.45 28.58 32.8 28.89 33.14 29.21C32.14 29.14 31.2 29.53 30.29 29.91C30.15 29.29 30.13 28.61 29.8 28.05C29.23 28.03 28.66 28.1 28.09 28.17C27.9 27.75 27.71 27.33 27.51 26.91C25.98 27.49 24.51 28.28 23.35 29.46C23.06 28.94 22.77 28.41 22.49 27.89C21.51 28.08 21 28.88 20.69 29.75C20.56 29.83 20.32 29.99 20.19 30.05C19.82 29.35 19.53 28.57 18.97 27.99C18.1 27.29 16.94 27.23 15.87 27.13V27.13z"
        transform="matrix(1.2873,0,0,1.2868,-12.4243,-4.4586)"
  />
  <path style="fill:#38210e"
        d="M37.01 24.01C37.35 24.25 37.67 24.51 38.03 24.7C38.46 24.78 38.89 24.83 39.32 24.86C39.49 24.88 39.82 24.92 40 24.94C39.47 25.16 38.93 25.4 38.47 25.75C38.24 26.83 38.65 27.89 38.89 28.93C38.77 28.87 38.52 28.76 38.41 28.7C38.02 28 37.72 27.24 37.41 26.51C37.19 27.34 37.19 28.19 37.29 29.03C37.15 29.18 36.88 29.49 36.73 29.63C36.53 29.33 36.34 29.02 36.14 28.71C36.1 28.39 36.19 28.07 36.26 27.77C36.49 26.98 36.71 26.18 36.86 25.37C36.94 24.92 36.98 24.47 37.01 24.01V24.01z"
        transform="matrix(1.2873,0,0,1.2868,-12.4243,-4.4586)"
  />
  <path style="fill:#a36b13"
        d="M42.87 25.35C42.48 25.6 42.92 26.27 43.29 25.94C43.68 25.68 43.24 25.01 42.87 25.35V25.35z
           M41.87 27.13C41.38 26.11 41.42 24.99 41.69 23.92C41.74 24.11 41.84 24.51 41.89 24.71C42.37 24.7 42.87 24.69 43.36 24.68C43.57 25.27 43.8 25.85 44.02 26.44C43.3 26.64 42.58 26.89 41.87 27.13"
        transform="matrix(1.2873,0,0,1.2868,-12.4243,-4.4586)"
  />
  <path style="fill:#c89b28"
        d="M39.1 26.59C39.13 26.98 39.21 27.35 39.29 27.73C39.51 27.73 39.98 27.73 40.2 27.73C40.34 27.21 40.45 26.68 40.53 26.15C40.06 26.28 39.45 26.2 39.1 26.59V26.59z
           M40 24.94C40.28 24.82 40.57 24.71 40.87 24.61C41 25.57 41.1 26.54 41.26 27.5C40.57 28.16 39.79 28.72 38.96 29.19C38.94 29.1 38.91 29.01 38.89 28.93C38.65 27.89 38.24 26.83 38.47 25.75C38.93 25.4 39.47 25.16 40 24.94"
        transform="matrix(1.2873,0,0,1.2868,-12.4243,-4.4586)"
  />
  <path style="fill:#e58b32"
        d="M13.3 26.21C13.22 25.73 13.78 25.49 14 25.12C14.08 27.4 15.22 29.5 17.04 30.85C17 31.04 16.93 31.43 16.88 31.62C14.92 30.51 13.56 28.44 13.3 26.21V26.21z"
        transform="matrix(1.2873,0,0,1.2868,-12.4243,-4.4586)"
  />
  <path style="fill:#381504"
        d="M42.87 25.35C43.24 25.01 43.68 25.68 43.29 25.94C42.92 26.27 42.48 25.6 42.87 25.35V25.35z"
        transform="matrix(1.2873,0,0,1.2868,-12.4243,-4.4586)"
  />
  <path style="fill:#fcbf2b"
        d="M51.97 25.94C52.21 25.64 52.47 25.37 52.72 25.09C53.25 25.56 53.96 25.93 54.23 26.6C54.23 27.06 54.14 27.51 54.06 27.97C53.83 27.48 53.6 26.99 53.38 26.5C52.74 26.78 52.13 27.1 51.53 27.44C51.56 27.31 51.62 27.04 51.65 26.92C51.74 26.58 51.86 26.26 51.97 25.94V25.94z"
        transform="matrix(1.2873,0,0,1.2868,-12.4243,-4.4586)"
  />
  <path style="fill:#f7bb2d"
        d="M43.67 28.15C43.46 28.9 43.94 29.5 44.42 30C44.72 29.66 45.03 29.32 45.28 28.94C45.43 28.42 45.17 27.88 45.07 27.38C44.59 27.6 44.07 27.79 43.67 28.15V28.15z
           M43.12 27.57C43.93 26.86 44.93 26.42 45.87 25.92C46.12 26.87 46.39 27.83 46.67 28.77C45.87 29.51 45 30.2 44.11 30.82C43.3 29.95 42.55 28.79 43.12 27.57"
        transform="matrix(1.2873,0,0,1.2868,-12.4243,-4.4586)"
  />
  <path style="fill:#270c00"
        d="M39.1 26.59C39.45 26.2 40.06 26.28 40.53 26.15C40.45 26.68 40.34 27.21 40.2 27.73C39.98 27.73 39.51 27.73 39.29 27.73C39.21 27.35 39.13 26.98 39.1 26.59V26.59z"
        transform="matrix(1.2873,0,0,1.2868,-12.4243,-4.4586)"
  />
  <path style="fill:#270c00"
        d="M41.59 38.93C41.25 38.06 42.16 37.6 42.79 37.3C42.68 37.96 42.62 39.5 41.59 38.93V38.93z"
        transform="matrix(1.2873,0,0,1.2868,-12.4243,-4.4586)"
  />
  <path style="fill:#a1621a"
        d="M47.21 26.5C47.7 26.32 48.18 26.12 48.66 25.95C48.9 26.6 49.08 27.28 49.29 27.96C49.09 28.13 48.9 28.31 48.69 28.49C48.61 28.42 48.46 28.28 48.37 28.2C48.38 27.7 48.41 27.19 48.43 26.68C48.08 26.95 47.75 27.22 47.43 27.49C47.35 27.16 47.28 26.84 47.21 26.5V26.5z"
        transform="matrix(1.2873,0,0,1.2868,-12.4243,-4.4586)"
  />
  <path style="fill:#6b2905"
        d="M51.53 27.44C52.13 27.1 52.74 26.78 53.38 26.5C53.6 26.99 53.83 27.48 54.06 27.97C53.64 28.45 53.3 29.47 52.48 29.11C52.08 28.6 51.82 28 51.53 27.44V27.44z"
        transform="matrix(1.2873,0,0,1.2868,-12.4243,-4.4586)"
  />
  <path style="fill:#fc5a26"
        d="M15.87 27.13C16.94 27.23 18.1 27.29 18.97 27.99C19.53 28.57 19.82 29.35 20.19 30.05C20.32 29.99 20.56 29.83 20.69 29.75C21 28.88 21.51 28.08 22.49 27.89C22.77 28.41 23.06 28.94 23.35 29.46C24.51 28.28 25.98 27.49 27.51 26.91C27.71 27.33 27.9 27.75 28.09 28.17C28.66 28.1 29.23 28.03 29.8 28.05C30.13 28.61 30.15 29.29 30.29 29.91C31.2 29.53 32.14 29.14 33.14 29.21C33.24 29.21 33.35 29.21 33.45 29.21C32.33 29.55 31.31 30.18 30.7 31.2C29.93 30.98 29.13 30.77 28.36 30.53C28.07 30.29 27.79 30.04 27.49 29.84C27 30.23 26.58 30.7 26.15 31.16C25.59 31.07 25.02 30.93 24.46 30.99C23.86 31.25 23.38 31.7 22.88 32.09C21.25 31.65 19.7 30.92 18.41 29.84C17.97 29.9 17.52 29.96 17.08 30.02C16.64 29.08 16.23 28.12 15.87 27.13V27.13z"
        transform="matrix(1.2873,0,0,1.2868,-12.4243,-4.4586)"
  />
  <path style="fill:#482f01"
        d="M47.43 27.49C47.75 27.22 48.08 26.95 48.43 26.68C48.41 27.19 48.38 27.7 48.37 28.2C48.05 27.97 47.74 27.72 47.43 27.49V27.49z"
        transform="matrix(1.2873,0,0,1.2868,-12.4243,-4.4586)"
  />
  <path style="fill:#d69728"
        d="M49.65 31.19C50.15 31.11 50.64 31.01 51.12 30.9C51 30.28 50.81 29.66 50.53 29.09C49.73 29.53 49.52 30.33 49.65 31.19V31.19z
           M48.22 29.52C49.1 28.77 49.95 27.97 50.78 27.13C51.29 28.06 51.93 28.98 52.13 30.03C51.9 31.14 50.85 31.75 49.97 32.3C49.25 31.47 48.65 30.54 48.22 29.52"
        transform="matrix(1.2873,0,0,1.2868,-12.4243,-4.4586)"
  />
  <path style="fill:#804a1d"
        d="M43.67 28.15C44.07 27.79 44.59 27.6 45.07 27.38C45.17 27.88 45.43 28.42 45.28 28.94C45.03 29.32 44.72 29.66 44.42 30C43.94 29.5 43.46 28.9 43.67 28.15V28.15z"
        transform="matrix(1.2873,0,0,1.2868,-12.4243,-4.4586)"
  />
  <path style="fill:#bd920d"
        d="M40.22 29.82C40.4 30.28 40.52 30.77 40.91 31.11C41.28 30.76 41.43 30.27 41.6 29.81C41.14 29.81 40.68 29.81 40.22 29.82V29.82z
           M39.61 29.8C40.3 28.95 41.27 28.41 42.15 27.79C42.41 28.72 42.75 29.64 42.77 30.61C42.26 31.4 41.32 31.72 40.55 32.18C39.89 31.59 39.14 30.75 39.61 29.8"
        transform="matrix(1.2873,0,0,1.2868,-12.4243,-4.4586)"
  />
  <path style="fill:#c3aa39"
        d="M53.5 29.97C53.79 29.21 54.21 28.5 54.7 27.86C55.43 29.15 56.12 31.07 54.7 32.18C54.41 31.79 54.11 31.41 53.83 31.02C54.16 30.81 54.5 30.6 54.85 30.39C54.82 30.09 54.78 29.8 54.75 29.5C54.33 29.66 53.91 29.82 53.5 29.97V29.97z"
        transform="matrix(1.2873,0,0,1.2868,-12.4243,-4.4586)"
  />
  <path style="fill:#c3aa39"
        d="M51.42 42.23C51.36 40.77 52.57 39.91 53.72 39.3C53.5 40.59 52.84 41.97 51.42 42.23V42.23z"
        transform="matrix(1.2873,0,0,1.2868,-12.4243,-4.4586)"
  />
  <path style="fill:#fbdcd7"
        d="M30.7 31.2C31.31 30.18 32.33 29.55 33.45 29.21C32.95 31.02 31.42 32.18 29.88 33.1C29.81 33.13 29.73 33.16 29.66 33.18C29.46 33.2 29.04 33.24 28.84 33.26C29.35 32.72 29.87 32.19 30.35 31.63C30.44 31.52 30.61 31.31 30.7 31.2V31.2z"
        transform="matrix(1.2873,0,0,1.2868,-12.4243,-4.4586)"
  />
  <path style="fill:#ce951a"
        d="M45.99 32.26C45.8 33.05 46.66 32.77 47.13 32.84C47.15 32.32 47.17 31.8 47.19 31.28C46.69 31.45 45.93 31.56 45.99 32.26V32.26z
           M45.11 31.09C45.62 30.23 46.56 29.75 47.37 29.18C47.87 30.25 48.45 31.35 48.47 32.55C48.07 33.57 47.01 34.07 46.09 34.54C45.4 33.55 44.71 32.34 45.11 31.09"
        transform="matrix(1.2873,0,0,1.2868,-12.4243,-4.4586)"
  />
  <path style="fill:#3a2700"
        d="M49.65 31.19C49.52 30.33 49.73 29.53 50.53 29.09C50.81 29.66 51 30.28 51.12 30.9C50.64 31.01 50.15 31.11 49.65 31.19V31.19z"
        transform="matrix(1.2873,0,0,1.2868,-12.4243,-4.4586)"
  />
  <path style="fill:#fc9d06"
        d="M17.08 30.02C17.52 29.96 17.97 29.9 18.41 29.84C19.7 30.92 21.25 31.65 22.88 32.09C23.38 31.7 23.86 31.25 24.46 30.99C25.02 30.93 25.59 31.07 26.15 31.16C26.58 30.7 27 30.23 27.49 29.84C27.79 30.04 28.07 30.29 28.36 30.53C29.13 30.77 29.93 30.98 30.7 31.2C30.61 31.31 30.44 31.52 30.35 31.63C29.09 32.48 27.62 31.65 26.26 31.77C25.1 31.98 24.08 32.84 22.87 32.7C21.73 32.58 20.6 32.35 19.47 32.21C18.74 31.52 17.95 30.92 17.19 30.26C17.15 30.18 17.12 30.1 17.08 30.02V30.02z"
        transform="matrix(1.2873,0,0,1.2868,-12.4243,-4.4586)"
  />
  <path style="fill:#d19237"
        d="M37.07 31.45C37.16 31.89 37.24 32.34 37.35 32.78C38.21 32.9 38.15 31.92 38.39 31.35C37.95 31.38 37.5 31.41 37.07 31.45V31.45z
           M36.57 30.87C37.22 30.35 37.98 30 38.69 29.6C38.91 30.49 39.02 31.38 39.24 32.26C38.64 32.64 38.04 33.04 37.38 33.31C36.39 33.12 36.38 31.67 36.57 30.87"
        transform="matrix(1.2873,0,0,1.2868,-12.4243,-4.4586)"
  />
  <path style="fill:#f1cc7f"
        d="M17.19 30.26C17.95 30.92 18.74 31.52 19.47 32.21C19.82 32.54 20.16 32.89 20.53 33.21C19.18 33.04 18.02 32.29 16.88 31.62C16.93 31.43 17 31.04 17.04 30.85C17.08 30.7 17.15 30.41 17.19 30.26V30.26z"
        transform="matrix(1.2873,0,0,1.2868,-12.4243,-4.4586)"
  />
  <path style="fill:#6c5f37"
        d="M32.91 32.7C33.51 31.65 34.39 30.77 35.49 30.24C34.91 31.31 34.04 32.22 32.91 32.7V32.7z"
        transform="matrix(1.2873,0,0,1.2868,-12.4243,-4.4586)"
  />
  <path style="fill:#c89421"
        d="M52.13 34.63C52.53 34.1 53.35 32.65 52.08 32.78C51.25 33.26 51.71 34.06 52.13 34.63V34.63z
           M50.59 32.94C51.3 31.96 52.22 31.17 53.03 30.28C53.37 31.13 53.83 31.97 53.93 32.89C53.74 33.93 52.78 34.55 52.08 35.25C51.51 34.53 50.84 33.85 50.59 32.94"
        transform="matrix(1.2873,0,0,1.2868,-12.4243,-4.4586)"
  />
  <path style="fill:#cc8b19"
        d="M42.43 33.93C42.33 34.54 43.02 34.67 43.4 34.99C43.43 34.44 43.46 33.89 43.49 33.34C43.11 33.51 42.77 33.71 42.43 33.93V33.93z
           M41.22 32.71C42.01 32.12 42.73 31.36 43.69 31.04C44.56 31.71 44.61 32.92 44.71 33.92C44.9 34.96 43.71 35.52 42.85 35.58C41.77 35.03 41.43 33.81 41.22 32.71"
        transform="matrix(1.2873,0,0,1.2868,-12.4243,-4.4586)"
  />
  <path style="fill:#f9cc09"
        d="M22.87 32.7C24.08 32.84 25.1 31.98 26.26 31.77C27.62 31.65 29.09 32.48 30.35 31.63C29.87 32.19 29.35 32.72 28.84 33.26C29.04 33.24 29.46 33.2 29.66 33.18C28.73 33.77 27.64 34.08 26.54 34.06C24.52 34.08 22.35 34.22 20.53 33.21C20.16 32.89 19.82 32.54 19.47 32.21C20.6 32.35 21.73 32.58 22.87 32.7V32.7z"
        transform="matrix(1.2873,0,0,1.2868,-12.4243,-4.4586)"
  />
  <path style="fill:#d4931b"
        d="M34.49 32.47C34.85 32.14 35.21 31.81 35.56 31.48C36.02 32.4 36.27 33.42 36.1 34.45C35.78 34.42 35.47 34.38 35.14 34.35C34.95 33.71 34.72 33.08 34.49 32.47V32.47z"
        transform="matrix(1.2873,0,0,1.2868,-12.4243,-4.4586)"
  />
  <path style="fill:#7f4c14"
        d="M33.42 35.29C32.95 34.18 33.53 33.08 34.49 32.47C34.72 33.08 34.95 33.71 35.14 34.35C35.47 34.38 35.78 34.42 36.1 34.45C36.21 34.47 36.44 34.49 36.54 34.5C36.22 34.68 35.91 34.88 35.58 35.07C34.92 35.31 34.08 35.64 33.42 35.29V35.29z"
        transform="matrix(1.2873,0,0,1.2868,-12.4243,-4.4586)"
  />
  <path style="fill:#c58316"
        d="M38.6 35.75C38.9 35.75 39.49 35.75 39.78 35.76C39.63 35.24 39.48 34.72 39.35 34.2C39.07 34.7 38.82 35.21 38.6 35.75V35.75z
           M38.02 33.95C38.57 33.1 39.57 32.82 40.49 32.58C40.65 33.59 41.62 34.96 40.56 35.77C39.93 36.38 39 36.33 38.19 36.37C38.1 35.57 37.83 34.75 38.02 33.95"
        transform="matrix(1.2873,0,0,1.2868,-12.4243,-4.4586)"
  />
  <path style="fill:#d2921c"
        d="M48.34 35.22C48.34 35.71 48.34 36.2 48.34 36.7C48.69 36.65 49.03 36.61 49.38 36.56C49.42 36.12 49.46 35.68 49.5 35.24C49.1 35.23 48.72 35.23 48.34 35.22V35.22z
           M47.18 34.88C47.94 34.14 48.5 33.12 49.48 32.65C50.3 33.52 51.04 34.84 50.45 36.03C50.1 37 49.09 37.38 48.24 37.75C47.83 36.82 47.48 35.86 47.18 34.88"
        transform="matrix(1.2873,0,0,1.2868,-12.4243,-4.4586)"
  />
  <path style="fill:#916117"
        d="M31.54 36.89C31.24 35.5 31.06 33.67 32.49 32.82C32.77 34.1 32.85 35.45 32.65 36.76C32.37 36.79 31.82 36.86 31.54 36.89V36.89z"
        transform="matrix(1.2873,0,0,1.2868,-12.4243,-4.4586)"
  />
  <path style="fill:#683807"
        d="M52.13 34.63C51.71 34.06 51.25 33.26 52.08 32.78C53.35 32.65 52.53 34.1 52.13 34.63V34.63z"
        transform="matrix(1.2873,0,0,1.2868,-12.4243,-4.4586)"
  />
  <path style="fill:#db9d20"
        d="M53.48 35.42C53.61 34.44 54.37 33.68 54.9 32.89C54.9 34.15 54.78 35.42 54.36 36.61C54.05 36.23 53.62 35.9 53.48 35.42V35.42z"
        transform="matrix(1.2873,0,0,1.2868,-12.4243,-4.4586)"
  />
  <path style="fill:#5b2a09"
        d="M42.43 33.93C42.77 33.71 43.11 33.51 43.49 33.34C43.46 33.89 43.43 34.44 43.4 34.99C43.02 34.67 42.33 34.54 42.43 33.93V33.93z"
        transform="matrix(1.2873,0,0,1.2868,-12.4243,-4.4586)"
  />
  <path style="fill:#d89713"
        d="M35.1 37.25C35.47 37.42 35.83 37.57 36.2 37.73C36.32 37.06 36.41 36.39 36.5 35.72C35.69 35.89 35.23 36.47 35.1 37.25V37.25z
           M36.54 34.5C36.67 34.43 36.93 34.28 37.05 34.2C37.41 35.32 37.71 36.45 37.97 37.58C37.1 37.93 36.21 38.39 35.25 38.29C34.61 37.78 34.43 36.94 34.17 36.2C34.64 35.82 35.09 35.42 35.58 35.07C35.91 34.88 36.22 34.68 36.54 34.5"
        transform="matrix(1.2873,0,0,1.2868,-12.4243,-4.4586)"
  />
  <path style="fill:#483004"
        d="M38.6 35.75C38.82 35.21 39.07 34.7 39.35 34.2C39.48 34.72 39.63 35.24 39.78 35.76C39.49 35.75 38.9 35.75 38.6 35.75V35.75z"
        transform="matrix(1.2873,0,0,1.2868,-12.4243,-4.4586)"
  />
  <path style="fill:#c7c8c5"
        d="M23.96 34.86C24.5 34.83 25.04 34.8 25.58 34.77C25.73 36.52 25.92 38.27 26.12 40.02C26.16 40.4 26.21 40.78 26.25 41.16C26.03 43.23 25.83 45.3 25.88 47.38C24.85 47.37 23.83 47.36 22.81 47.36C22.88 47.15 23.01 46.72 23.07 46.51C23.77 45.73 24.42 44.88 24.76 43.89C25.18 42.5 25.33 41.04 25.33 39.61C25.32 37.93 24.61 36.38 23.96 34.86V34.86z"
        transform="matrix(1.2873,0,0,1.2868,-12.4243,-4.4586)"
  />
  <path style="fill:#757576"
        d="M25.58 34.77C26.12 34.75 26.67 34.74 27.21 34.73C26.79 36.48 26.3 38.22 26.12 40.02C25.92 38.27 25.73 36.52 25.58 34.77V34.77z"
        transform="matrix(1.2873,0,0,1.2868,-12.4243,-4.4586)"
  />
  <path style="fill:#757576"
        d="M23.23 48.35C24.62 48.35 26 48.32 27.4 48.36C28.72 48.44 30.04 48.59 31.38 48.59C28.79 49 26.16 49.23 23.53 49.08C24.76 48.96 25.99 48.8 27.22 48.72C25.88 48.69 24.55 48.55 23.23 48.35V48.35z"
        transform="matrix(1.2873,0,0,1.2868,-12.4243,-4.4586)"
  />
  <path style="fill:#d09219"
        d="M44.91 38.06C45.21 38.06 45.82 38.06 46.12 38.06C46.27 37.38 46.16 36.7 45.76 36.12C45.24 36.65 44.87 37.29 44.91 38.06V38.06z
           M44.59 35.64C44.94 35.31 45.34 34.79 45.89 34.96C46.7 35.58 47.2 36.62 47.06 37.65C46.53 38.39 45.6 38.61 44.83 38.98C44.65 37.91 43.62 36.58 44.59 35.64"
        transform="matrix(1.2873,0,0,1.2868,-12.4243,-4.4586)"
  />
  <path style="fill:#481d00"
        d="M48.34 35.22C48.72 35.23 49.1 35.23 49.5 35.24C49.46 35.68 49.42 36.12 49.38 36.56C49.03 36.61 48.69 36.65 48.34 36.7C48.34 36.2 48.34 35.71 48.34 35.22V35.22z"
        transform="matrix(1.2873,0,0,1.2868,-12.4243,-4.4586)"
  />
  <path style="fill:#362704"
        d="M35.1 37.25C35.23 36.47 35.69 35.89 36.5 35.72C36.41 36.39 36.32 37.06 36.2 37.73C35.83 37.57 35.47 37.42 35.1 37.25V37.25z"
        transform="matrix(1.2873,0,0,1.2868,-12.4243,-4.4586)"
  />
  <path style="fill:#c59027"
        d="M41.59 38.93C42.62 39.5 42.68 37.96 42.79 37.3C42.16 37.6 41.25 38.06 41.59 38.93V38.93z
           M39.58 37.29C40.37 36.68 41.18 35.52 42.31 35.98C43.51 36.17 43.89 37.59 43.85 38.64C43.64 39.74 42.39 40.04 41.53 40.5C40.91 39.42 40.26 38.34 39.58 37.29"
        transform="matrix(1.2873,0,0,1.2868,-12.4243,-4.4586)"
  />
  <path style="fill:#cf9523"
        d="M50.69 38.37C50.43 37.17 51.31 36.05 52.39 35.65C53.02 36.05 53.57 36.65 53.77 37.39C53.68 37.88 53.52 38.36 53.4 38.84C52.95 38.35 52.5 37.85 52.05 37.36C51.6 37.7 51.14 38.03 50.69 38.37V38.37z"
        transform="matrix(1.2873,0,0,1.2868,-12.4243,-4.4586)"
  />
  <path style="fill:#6a3a0b"
        d="M44.91 38.06C44.87 37.29 45.24 36.65 45.76 36.12C46.16 36.7 46.27 37.38 46.12 38.06C45.82 38.06 45.21 38.06 44.91 38.06V38.06z"
        transform="matrix(1.2873,0,0,1.2868,-12.4243,-4.4586)"
  />
  <path style="fill:#9d6f19"
        d="M32.52 38.46C32.73 39 32.85 39.71 33.54 39.81C33.54 39.33 33.54 38.85 33.54 38.37C33.29 38.4 32.78 38.44 32.52 38.46V38.46z
           M31.92 38.08C32.35 37.51 32.96 37.14 33.51 36.72C33.9 37.44 34.43 38.12 34.52 38.95C34.28 39.59 33.87 40.15 33.5 40.73C32.73 40.06 31.53 39.28 31.92 38.08"
        transform="matrix(1.2873,0,0,1.2868,-12.4243,-4.4586)"
  />
  <path style="fill:#7d4c0e"
        d="M50.69 38.37C51.14 38.03 51.6 37.7 52.05 37.36C52.5 37.85 52.95 38.35 53.4 38.84C52.75 39.32 52.1 39.78 51.43 40.2C51.19 39.59 50.95 38.98 50.69 38.37V38.37z"
        transform="matrix(1.2873,0,0,1.2868,-12.4243,-4.4586)"
  />
  <path style="fill:#cc921a"
        d="M37.79 40.06C37.71 40.64 37.79 41.63 38.59 41.5C38.93 40.91 38.89 40.2 38.95 39.54C38.55 39.7 38.15 39.85 37.79 40.06V40.06z
           M36.57 38.96C37.36 38.48 38.17 38.05 38.99 37.63C39.65 38.45 40.61 39.36 40.31 40.52C39.94 41.33 39.17 41.94 38.33 42.2C37.89 42.31 37.5 41.92 37.38 41.51C37.03 40.68 36.83 39.81 36.57 38.96"
        transform="matrix(1.2873,0,0,1.2868,-12.4243,-4.4586)"
  />
  <path style="fill:#e29227"
        d="M48.31 38.69C48.78 38.37 49.31 38.16 49.83 37.95C50.23 38.77 50.53 39.63 50.78 40.51C50.05 39.51 48.89 39.79 47.91 40.16C48.02 39.67 48 39.11 48.31 38.69V38.69z"
        transform="matrix(1.2873,0,0,1.2868,-12.4243,-4.4586)"
  />
  <path style="fill:#4b2a03"
        d="M32.52 38.46C32.78 38.44 33.29 38.4 33.54 38.37C33.54 38.85 33.54 39.33 33.54 39.81C32.85 39.71 32.73 39 32.52 38.46V38.46z"
        transform="matrix(1.2873,0,0,1.2868,-12.4243,-4.4586)"
  />
  <path style="fill:#dd9720"
        d="M44.82 40.03C45.56 39.54 46.34 39.09 47.12 38.65C47.07 39.87 47.65 41.26 46.89 42.33C46.79 41.76 46.7 41.18 46.61 40.61C46 40.75 45.36 40.88 44.73 41.01C44.75 40.77 44.8 40.27 44.82 40.03V40.03z"
        transform="matrix(1.2873,0,0,1.2868,-12.4243,-4.4586)"
  />
  <path style="fill:#b8901f"
        d="M33.65 41.87C34.14 40.86 34.74 39.9 35.49 39.04C36.22 40.03 36.97 41.19 36.81 42.49C36.63 43.24 35.99 43.74 35.5 44.3C34.84 43.52 34.22 42.71 33.65 41.87"
        transform="matrix(1.2873,0,0,1.2868,-12.4243,-4.4586)"
  />
  <path style="fill:#99692b"
        d="M48.77 40.58C49.13 40.75 49.49 40.94 49.84 41.13C49.81 40.82 49.77 40.18 49.74 39.87C49.34 39.99 49.01 40.24 48.77 40.58V40.58z
           M47.91 40.16C48.89 39.79 50.05 39.51 50.78 40.51C50.17 41.5 49.28 42.33 48.04 42.29C48 41.58 47.96 40.87 47.91 40.16"
        transform="matrix(1.2873,0,0,1.2868,-12.4243,-4.4586)"
  />
  <path style="fill:#c59a28"
        d="M41.78 43.16C42 43.56 42.32 43.67 42.73 43.49C43.2 43.14 43.1 42.49 43.25 42C42.62 42.18 42 42.5 41.78 43.16V43.16z
           M41.18 41.61C42 40.9 43.03 40.5 44 40C44.1 41.11 44.7 42.5 43.77 43.43C43.19 44.28 42.07 44.11 41.19 44.17C41.15 43.32 41.05 42.47 41.18 41.61"
        transform="matrix(1.2873,0,0,1.2868,-12.4243,-4.4586)"
  />
  <path style="fill:#342e02"
        d="M48.77 40.58C49.01 40.24 49.34 39.99 49.74 39.87C49.77 40.18 49.81 40.82 49.84 41.13C49.49 40.94 49.13 40.75 48.77 40.58V40.58z"
        transform="matrix(1.2873,0,0,1.2868,-12.4243,-4.4586)"
  />
  <path style="fill:#865f11"
        d="M44.73 41.01C45.36 40.88 46 40.75 46.61 40.61C46.7 41.18 46.79 41.76 46.89 42.33C46.3 42.47 45.73 42.65 45.15 42.82C45.01 42.22 44.88 41.61 44.73 41.01V41.01z"
        transform="matrix(1.2873,0,0,1.2868,-12.4243,-4.4586)"
  />
  <path style="fill:#3f1f00"
        d="M34.47 42.39C34.62 41.72 34.98 41.14 35.61 40.85C35.75 41.53 35.87 42.21 35.99 42.9C35.48 42.73 34.97 42.55 34.47 42.39V42.39z"
        transform="matrix(1.2873,0,0,1.2868,-12.4243,-4.4586)"
  />
  <path style="fill:#737373"
        d="M29.72 45.88C29.63 46.3 29.54 46.73 29.45 47.15C30.01 47.01 30.58 46.87 31.13 46.67C31.23 45.79 30.3 46 29.72 45.88V45.88z
           M26.25 41.16C26.62 42.45 27 43.75 27.64 44.94C27.84 45.25 28.05 45.67 28.49 45.68C29.81 45.84 31.24 45.67 32.41 46.46C31.19 47.15 29.82 47.47 28.43 47.54C25.46 47.74 22.39 47.97 19.51 47C20.15 46.64 20.77 46.24 21.48 46.05C22.04 46.05 22.56 46.33 23.07 46.51C23.01 46.72 22.88 47.15 22.81 47.36C23.83 47.36 24.85 47.37 25.88 47.38C25.83 45.3 26.03 43.23 26.25 41.16"
        transform="matrix(1.2873,0,0,1.2868,-12.4243,-4.4586)"
  />
  <path style="fill:#d49636"
        d="M38.67 42.86C39.25 42.41 39.89 42.04 40.58 41.82C40.53 42.84 39.79 43.52 39.05 44.11C38.93 43.69 38.8 43.27 38.67 42.86V42.86z"
        transform="matrix(1.2873,0,0,1.2868,-12.4243,-4.4586)"
  />
  <path style="fill:#cc942b"
        d="M48.55 43.06C49.19 42.5 50.02 42.21 50.78 41.84C51.12 42.69 51.38 43.65 50.92 44.5C50.39 44.78 50.12 44.04 49.76 43.8C49.5 44.01 49.25 44.23 49 44.45C49.12 44.79 49.26 45.12 49.39 45.47C49.05 45.44 48.73 45.4 48.4 45.37C48.42 44.6 48.32 43.81 48.55 43.06V43.06z"
        transform="matrix(1.2873,0,0,1.2868,-12.4243,-4.4586)"
  />
  <path style="fill:#612704"
        d="M41.78 43.16C42 42.5 42.62 42.18 43.25 42C43.1 42.49 43.2 43.14 42.73 43.49C42.32 43.67 42 43.56 41.78 43.16V43.16z"
        transform="matrix(1.2873,0,0,1.2868,-12.4243,-4.4586)"
  />
  <path style="fill:#9d5f24"
        d="M32.63 42.41C33.86 43.14 35.48 44.65 34.48 46.16C33.11 45.48 31.89 44 32.63 42.41V42.41z"
        transform="matrix(1.2873,0,0,1.2868,-12.4243,-4.4586)"
  />
  <path style="fill:#d29a2f"
        d="M45.23 45.32C45.67 45.3 46.1 45.27 46.53 45.25C46.55 44.83 46.57 44.41 46.59 44C45.82 44.07 45.35 44.55 45.23 45.32V45.32z
           M44.84 43.6C45.81 43.28 46.77 42.93 47.72 42.56C47.74 43.46 47.84 44.39 47.5 45.22C46.79 45.89 45.72 45.85 44.83 46.04C44.83 45.23 44.84 44.42 44.84 43.6"
        transform="matrix(1.2873,0,0,1.2868,-12.4243,-4.4586)"
  />
  <path style="fill:#9b5f18"
        d="M37.24 43.01C37.88 42.64 38.28 43.53 38.46 44.01C38.7 44.79 38.92 46.02 37.9 46.3C37.17 46.74 36.54 45.84 36.22 45.28C36.25 44.44 36.69 43.64 37.24 43.01V43.01z"
        transform="matrix(1.2873,0,0,1.2868,-12.4243,-4.4586)"
  />
  <path style="fill:#14120e"
        d="M23.52 44.85C23.97 44.57 24.38 44.24 24.76 43.89C24.42 44.88 23.77 45.73 23.07 46.51C22.56 46.33 22.04 46.05 21.48 46.05C20.77 46.24 20.15 46.64 19.51 47C22.39 47.97 25.46 47.74 28.43 47.54C29.82 47.47 31.19 47.15 32.41 46.46C32.64 46.83 32.85 47.21 33.06 47.59C31.16 47.76 29.3 48.22 27.4 48.36C26 48.32 24.62 48.35 23.23 48.35C21.63 48.17 20.02 47.81 18.42 48.01C19.59 48.56 20.84 49 22.13 49.14C21.7 49.33 21.28 49.53 20.86 49.72C19.95 49.89 19.04 49.28 18.34 48.75C17.62 48.31 18.11 47.44 18.51 46.97C19.76 45.5 21.81 45.38 23.52 44.85V44.85z"
        transform="matrix(1.2873,0,0,1.2868,-12.4243,-4.4586)"
  />
  <path style="fill:#8f6d30"
        d="M39.26 44.41C39.77 44.32 40.28 44.24 40.79 44.15C40.46 44.79 39.93 45.26 39.29 45.56C39.28 45.28 39.27 44.7 39.26 44.41V44.41z"
        transform="matrix(1.2873,0,0,1.2868,-12.4243,-4.4586)"
  />
  <path style="fill:#9b6a1d"
        d="M40.49 45.57C41.45 44.63 42.88 44.6 44.12 44.4C44.16 44.84 44.19 45.27 44.23 45.71C42.87 46.52 41.47 47.26 39.95 47.68C40.04 46.98 39.87 46.09 40.49 45.57V45.57z"
        transform="matrix(1.2873,0,0,1.2868,-12.4243,-4.4586)"
  />
  <path style="fill:#a07724"
        d="M34.73 46.68C34.94 46.25 35.2 45.86 35.47 45.47C35.85 45.97 36.22 46.47 36.57 46.99C36.22 47.45 35.86 47.89 35.48 48.33C35.2 47.79 34.91 47.26 34.73 46.68V46.68z"
        transform="matrix(1.2873,0,0,1.2868,-12.4243,-4.4586)"
  />
  <path style="fill:#c9c9cc"
        d="M29.72 45.88C30.3 46 31.23 45.79 31.13 46.67C30.58 46.87 30.01 47.01 29.45 47.15C29.54 46.73 29.63 46.3 29.72 45.88V45.88z"
        transform="matrix(1.2873,0,0,1.2868,-12.4243,-4.4586)"
  />
  <path style="fill:#c29b2d"
        d="M46.26 46.57C46.83 46.09 47.61 46.12 48.31 46.01C48.13 46.44 48.23 47.08 47.75 47.32C47.32 47.41 46.88 47.39 46.44 47.4C46.09 47.8 45.75 48.21 45.38 48.59C45.6 47.9 45.63 47.05 46.26 46.57V46.57z"
        transform="matrix(1.2873,0,0,1.2868,-12.4243,-4.4586)"
  />
  <path style="fill:#976310"
        d="M36.56 48.07C37.22 47.17 38.28 46.71 39.25 46.25C39.27 47.2 39.57 48.32 38.89 49.12C38.22 50.12 36.16 49.3 36.56 48.07V48.07z"
        transform="matrix(1.2873,0,0,1.2868,-12.4243,-4.4586)"
  />
  <path style="fill:#9d7230"
        d="M42.76 47.58C43.26 46.96 44.14 46.9 44.85 46.64C44.8 47.5 44.8 48.42 44.38 49.21C43.76 49.08 43.74 48.32 43.45 47.88C43.09 48.37 43.11 48.97 43.21 49.54C43.02 49.51 42.66 49.48 42.48 49.45C42.48 48.82 42.32 48.1 42.76 47.58V47.58z"
        transform="matrix(1.2873,0,0,1.2868,-12.4243,-4.4586)"
  />
  <path style="fill:#f9f3f9"
        d="M18.42 48.01C20.02 47.81 21.63 48.17 23.23 48.35C24.55 48.55 25.88 48.69 27.22 48.72C25.99 48.8 24.76 48.96 23.53 49.08C23.06 49.1 22.6 49.12 22.13 49.14C20.84 49 19.59 48.56 18.42 48.01V48.01z"
        transform="matrix(1.2873,0,0,1.2868,-12.4243,-4.4586)"
  />
  <path style="fill:#83672b"
        d="M39.46 49.53C39.71 48.35 40.97 48.04 41.93 47.6C41.73 48.28 41.54 48.97 41.35 49.63C41.2 49.51 40.9 49.28 40.75 49.16C40.32 49.3 39.89 49.43 39.46 49.53V49.53z"
        transform="matrix(1.2873,0,0,1.2868,-12.4243,-4.4586)"
  />
 </g>
</svg>
