<?xml version="1.0" encoding="UTF-8" standalone="no"?>
<svg
   version="1.1"
   width="64"
   height="64"
   color-interpolation="linearRGB"
   id="svg320"
   sodipodi:docname="qstardict.svg"
   inkscape:version="1.2.2 (b0a8486541, 2022-12-01)"
   xmlns:inkscape="http://www.inkscape.org/namespaces/inkscape"
   xmlns:sodipodi="http://sodipodi.sourceforge.net/DTD/sodipodi-0.dtd"
   xmlns:xlink="http://www.w3.org/1999/xlink"
   xmlns="http://www.w3.org/2000/svg"
   xmlns:svg="http://www.w3.org/2000/svg">
  <defs
     id="defs324">
    <linearGradient
       inkscape:collect="always"
       id="linearGradient1635">
      <stop
         style="stop-color:#008000;stop-opacity:1;"
         offset="0"
         id="stop1631" />
      <stop
         style="stop-color:#00e100;stop-opacity:1;"
         offset="1"
         id="stop1633" />
    </linearGradient>
    <linearGradient
       inkscape:collect="always"
       xlink:href="#linearGradient1635"
       id="linearGradient1637"
       x1="16"
       y1="40.5"
       x2="53"
       y2="40.5"
       gradientUnits="userSpaceOnUse" />
    <linearGradient
       id="gradient0-3"
       gradientUnits="userSpaceOnUse"
       x1="184.17"
       y1="3.8"
       x2="184.17"
       y2="57.360001">
      <stop
         offset="0"
         stop-color="#ffff80"
         id="stop3310" />
      <stop
         offset="1"
         stop-color="#ffd500"
         id="stop3312" />
    </linearGradient>
  </defs>
  <sodipodi:namedview
     id="namedview322"
     pagecolor="#ffffff"
     bordercolor="#000000"
     borderopacity="0.25"
     inkscape:showpageshadow="2"
     inkscape:pageopacity="0.0"
     inkscape:pagecheckerboard="0"
     inkscape:deskcolor="#d1d1d1"
     showgrid="false"
     inkscape:zoom="2.5191891"
     inkscape:cx="32.153204"
     inkscape:cy="46.641993"
     inkscape:window-width="1730"
     inkscape:window-height="1045"
     inkscape:window-x="0"
     inkscape:window-y="0"
     inkscape:window-maximized="0"
     inkscape:current-layer="svg320" />
  <g
     id="g318">
    <path
       style="display:inline;fill:#010000;fill-opacity:0.4196"
       d="m 30,64 h 5 l 11,-12 4,4 h 2 l 4,-4 -4,-4 v -2 c 0,0 12,-4 12,-12 L 60,32 H 30 Z"
       id="path258" />
    <path
       style="display:inline;fill:none;stroke:#010000;stroke-width:4"
       d="m 2,43 v 5 L 30,62 58,34 V 29 L 30,20 Z m 28,8 c 4,-2 6,-9 14,-9 L 16,30 C 10,30 6,36 2,38 Z M 18,28 c 0,-10 9,-14 9,-14 l 28,7 c 0,0 -11,7 -11,21 z"
       id="path260" />
    <linearGradient
       id="gradient0"
       gradientUnits="userSpaceOnUse"
       x1="-4.99"
       y1="75.88"
       x2="22.13"
       y2="17.11">
      <stop
         offset="0"
         stop-color="#7d7d7d"
         id="stop262" />
      <stop
         offset="1"
         stop-color="#bbbbbb"
         id="stop264" />
    </linearGradient>
    <path
       style="fill:url(#gradient0)"
       d="M58 29V34L30 62V56C35 51 39 43 44 42.5C46 38 55 32 58 29z"
       id="path267" />
    <linearGradient
       id="gradient1"
       gradientUnits="userSpaceOnUse"
       x1="13.2"
       y1="83.59"
       x2="-5.99"
       y2="58">
      <stop
         offset="0"
         stop-color="#d8d8d8"
         id="stop269" />
      <stop
         offset="1"
         stop-color="#ececec"
         id="stop271" />
    </linearGradient>
    <path
       style="display:inline;fill:url(#gradient1)"
       d="M 30,62 2,48 v -5 l 28,13 z"
       id="path274" />
    <linearGradient
       id="gradient2"
       gradientUnits="userSpaceOnUse"
       x1="22.31"
       y1="52.47"
       x2="37.68"
       y2="19.52">
      <stop
         offset="0.0039"
         stop-color="#fafafa"
         id="stop276" />
      <stop
         offset="0.1098"
         stop-color="#8c8c8c"
         id="stop278" />
      <stop
         offset="0.4745"
         stop-color="#343434"
         id="stop280" />
      <stop
         offset="1"
         stop-color="#c2c2c2"
         id="stop282" />
    </linearGradient>
    <path
       style="display:inline;fill:url(#gradient2)"
       d="M 2,43 30,56 C 35,51 39,43 44,42.5 46,38 55,32 58,29 L 30,20 Z"
       id="path285" />
    <linearGradient
       id="gradient3"
       gradientUnits="userSpaceOnUse"
       x1="31.7"
       y1="32.26"
       x2="38.8"
       y2="17.03">
      <stop
         offset="0"
         stop-color="#b6b6b6"
         id="stop287" />
      <stop
         offset="0.5176"
         stop-color="#fafafa"
         id="stop289" />
      <stop
         offset="1"
         stop-color="#d2d2d2"
         id="stop291" />
    </linearGradient>
    <path
       style="fill:url(#gradient3)"
       d="M18 28C18 18 27 14 27 14L55 21C55 21 44 28 44 42L18 28z"
       id="path294" />
    <linearGradient
       id="gradient4"
       gradientUnits="userSpaceOnUse"
       x1="19.79"
       y1="46.41"
       x2="26.69"
       y2="32.62">
      <stop
         offset="0.0039"
         stop-color="#cccccc"
         id="stop296" />
      <stop
         offset="0.8509"
         stop-color="#fafafa"
         id="stop298" />
      <stop
         offset="1"
         stop-color="#c8c8c8"
         id="stop300" />
    </linearGradient>
    <path
       style="display:inline;fill:url(#gradient4)"
       d="m 30,51 c 4,-2 6,-9 14,-9 L 16,30 C 10,30 6,36 2,38 Z"
       id="path303" />
    <path
       style="display:inline;fill:#010000"
       d="M 20,55.5 30,61 36,54.5 30,60 Z m 5,0 5,3.5 3.5,-4.5 -3.5,3 z M 2,47 6,48.5 2,46 Z m 0,-2 7,3 -7,-4 z m 56,-11 -5.5,4.5 5.5,-6 z m 0,-2 -3.5,3 3.5,-4 z"
       id="path305" />
    <path
       style="display:inline;fill:none;stroke:#010000;stroke-width:4;stroke-linecap:round;stroke-linejoin:round"
       d="m 16,29 v -3 c 4,2.04 22.67,8.83 27,11 4,2 4,4 5,7 1,3 2.42,5.91 5,7 h -3 v 4 c -2,-1 -4,-5 -5,-7 -1,-2 -0.2,-5.3 -2.1,-6.65 z"
       id="path307" />
    <linearGradient
       id="gradient5"
       gradientUnits="userSpaceOnUse"
       x1="39.7"
       y1="19.32"
       x2="62.87"
       y2="42.5">
      <stop
         offset="0"
         stop-color="#ff0606"
         id="stop309"
         style="stop-color:#ff0606;stop-opacity:1;" />
      <stop
         offset="0.498"
         stop-color="#ff7575"
         id="stop311" />
      <stop
         offset="1"
         stop-color="#7e0303"
         id="stop313" />
    </linearGradient>
    <path
       style="display:inline;fill:url(#linearGradient1637);fill-opacity:1"
       d="m 16,29 v -3 c 4,2.04 22.67,8.83 27,11 4,2 4,4 5,7 1,3 2.42,5.91 5,7 h -3 v 4 c -2,-1 -4,-5 -5,-7 -1,-2 -0.2,-5.3 -2.1,-6.65 z"
       id="path316" />
  </g>
  <g
     aria-label="D"
     transform="matrix(0.3921213,-0.89196461,0.88536238,0.38921887,-12.057522,39.272889)"
     id="text3875"
     style="font-weight:bold;font-size:14.6667px;font-family:serif;-inkscape-font-specification:'serif Bold';text-align:center;text-anchor:middle;white-space:pre;inline-size:20.2268;fill:#333333" />
  <text
     xml:space="preserve"
     style="font-style:normal;font-variant:normal;font-weight:bold;font-stretch:normal;font-size:11.0994px;font-family:serif;-inkscape-font-specification:'serif Bold';text-align:center;text-anchor:middle;fill:#4d4d4d;fill-opacity:1;stroke:none;stroke-width:0.756778"
     x="-30.297848"
     y="45.121269"
     id="text4339"
     transform="matrix(0.83010146,-0.66319987,0.9820907,0.42004212,0,0)"><tspan
       sodipodi:role="line"
       id="tspan4337"
       x="-30.297848"
       y="45.121269"
       style="stroke-width:0.756778">D</tspan></text>
  <g
     id="g5374"
     transform="matrix(1,0,0.04189062,1,0.91311537,1.3604279)"
     style="fill:#4d4d4d;fill-opacity:1">
    <rect
       style="fill:#4d4d4d;fill-opacity:1;fill-rule:evenodd"
       id="rect5058"
       width="8.6522751"
       height="0.59858501"
       x="-14.106626"
       y="43.272778"
       transform="rotate(-40.095529)" />
    <rect
       style="fill:#4d4d4d;fill-opacity:1;fill-rule:evenodd"
       id="rect5058-6"
       width="8.6522751"
       height="0.59858501"
       x="-13.147912"
       y="45.228615"
       transform="rotate(-40.095529)" />
    <rect
       style="fill:#4d4d4d;fill-opacity:1;fill-rule:evenodd"
       id="rect5058-7"
       width="8.6522751"
       height="0.59858501"
       x="-12.310963"
       y="47.202244"
       transform="rotate(-40.095529)" />
  </g>
</svg>
